<?xml version="1.0" encoding="UTF-8" standalone="no"?>
<!DOCTYPE svg PUBLIC "-//W3C//DTD SVG 1.1//EN"
 "https://www.w3.org/Graphics/SVG/1.1/DTD/svg11.dtd"><!-- Generated by graphviz version 2.43.0 (0)
 -->
<!-- Title: Graph Legend Pages: 1 -->
<svg width="544pt" height="159pt"
 viewBox="0.00 0.00 543.50 159.00" xmlns="http://www.w3.org/2000/svg" xmlns:xlink="http://www.w3.org/1999/xlink">
<g id="graph0" class="graph" transform="scale(1 1) rotate(0) translate(4 155)">
<title/>
<!-- Node9 -->
<g id="Node000009" class="node">
<title/>
<polygon fill="#999999" stroke="#666666" points="311,-19 251,-19 251,0 311,0 311,-19"/>
<text text-anchor="middle" x="281" y="-7" font-family="Helvetica,sans-Serif" font-size="10.00">Inherited</text>
</g>
<!-- Node10 -->
<g id="Node000010" class="node">
<title/>
<polygon fill="white" stroke="#666666" points="70,-85 0,-85 0,-66 70,-66 70,-85"/>
<text text-anchor="middle" x="35" y="-73" font-family="Helvetica,sans-Serif" font-size="10.00">PublicBase</text>
</g>
<!-- Node10&#45;&gt;Node9 -->
<g id="edge1" class="edge">
<title> </title>
<g id="a_edge1">
<path fill="none" stroke="#63b8ff" d="M77.7,-63.39C127.22,-50.51 207.6,-29.59 250.97,-18.31"/>
<polygon fill="#63b8ff" stroke="#63b8ff" points="76.72,-60.03 67.92,-65.94 78.48,-66.8 76.72,-60.03"/>
</g>
</g>
<!-- Node11 -->
<g id="Node000011" class="node">
<title/>
<polygon fill="#fff0f0" stroke="red" points="67,-151 3,-151 3,-132 67,-132 67,-151"/>
<text text-anchor="middle" x="35" y="-139" font-family="Helvetica,sans-Serif" font-size="10.00">Truncated</text>
</g>
<!-- Node11&#45;&gt;Node10 -->
<g id="edge2" class="edge">
<title> </title>
<g id="a_edge2">
<path fill="none" stroke="#63b8ff" d="M35,-121.58C35,-109.63 35,-94.72 35,-85.41"/>
<polygon fill="#63b8ff" stroke="#63b8ff" points="31.5,-121.87 35,-131.87 38.5,-121.87 31.5,-121.87"/>
</g>
</g>
<!-- Node13 -->
<g id="node4" class="node">
<title> </title>
<g id="a_node4">
<polygon fill="white" stroke="#666666" points="175.5,-85 88.5,-85 88.5,-66 175.5,-66 175.5,-85"/>
<text text-anchor="middle" x="132" y="-73" font-family="Helvetica,sans-Serif" font-size="10.00">ProtectedBase</text>
</g>
</g>
<!-- Node13&#45;&gt;Node9 -->
<g id="edge3" class="edge">
<title> </title>
<g id="a_edge3">
<path fill="none" stroke="darkgreen" d="M161.43,-61.86C190.79,-49.25 235.12,-30.21 260.75,-19.2"/>
<polygon fill="darkgreen" stroke="darkgreen" points="159.9,-58.71 152.09,-65.87 162.66,-65.14 159.9,-58.71"/>
</g>
</g>
<!-- Node14 -->
<g id="node5" class="node">
<title> </title>
<g id="a_node5">
<polygon fill="white" stroke="#666666" points="268.5,-85 193.5,-85 193.5,-66 268.5,-66 268.5,-85"/>
<text text-anchor="middle" x="231" y="-73" font-family="Helvetica,sans-Serif" font-size="10.00">PrivateBase</text>
</g>
</g>
<!-- Node14&#45;&gt;Node9 -->
<g id="edge4" class="edge">
<title> </title>
<g id="a_edge4">
<path fill="none" stroke="#8b1a1a" d="M244.07,-57.77C253.66,-45.49 266.31,-29.3 274.04,-19.41"/>
<polygon fill="#8b1a1a" stroke="#8b1a1a" points="241.14,-55.83 237.74,-65.87 246.66,-60.14 241.14,-55.83"/>
</g>
</g>
<!-- Node15 -->
<g id="Node000015" class="node">
<title/>
<polygon fill="#e0e0e0" stroke="#999999" points="377.5,-85 286.5,-85 286.5,-66 377.5,-66 377.5,-85"/>
<text text-anchor="middle" x="332" y="-73" font-family="Helvetica,sans-Serif" font-size="10.00">Undocumented</text>
</g>
<!-- Node15&#45;&gt;Node9 -->
<g id="edge5" class="edge">
<title> </title>
<g id="a_edge5">
<path fill="none" stroke="#63b8ff" d="M318.67,-57.77C308.88,-45.49 295.98,-29.3 288.1,-19.41"/>
<polygon fill="#63b8ff" stroke="#63b8ff" points="316.15,-60.23 325.12,-65.87 321.63,-55.87 316.15,-60.23"/>
</g>
</g>
<!-- Node16 -->
<g id="node7" class="node">
<title> </title>
<g id="a_node7">
<polygon fill="white" stroke="#666666" points="476.5,-85 395.5,-85 395.5,-66 476.5,-66 476.5,-85"/>
<text text-anchor="middle" x="436" y="-73" font-family="Helvetica,sans-Serif" font-size="10.00">Templ&lt; int &gt;</text>
</g>
</g>
<!-- Node16&#45;&gt;Node9 -->
<g id="edge6" class="edge">
<title> </title>
<g id="a_edge6">
<path fill="none" stroke="#63b8ff" d="M405.78,-62.02C375.24,-49.41 328.84,-30.25 302.07,-19.2"/>
<polygon fill="#63b8ff" stroke="#63b8ff" points="404.52,-65.29 415.1,-65.87 407.19,-58.82 404.52,-65.29"/>
</g>
</g>
<!-- Node17 -->
<g id="node8" class="node">
<title> </title>
<g id="a_node8">
<polygon fill="white" stroke="#666666" points="473,-151 399,-151 399,-132 473,-132 473,-151"/>
<text text-anchor="middle" x="436" y="-139" font-family="Helvetica,sans-Serif" font-size="10.00">Templ&lt; T &gt;</text>
</g>
</g>
<!-- Node17&#45;&gt;Node16 -->
<g id="edge7" class="edge">
<title> </title>
<g id="a_edge7">
<path fill="none" stroke="orange" stroke-dasharray="5,2" d="M436,-121.58C436,-109.63 436,-94.72 436,-85.41"/>
<polygon fill="orange" stroke="orange" points="432.5,-121.87 436,-131.87 439.5,-121.87 432.5,-121.87"/>
</g>
<text text-anchor="middle" x="454" y="-106" font-family="Helvetica,sans-Serif" font-size="10.00" fill="grey">&lt; int &gt;</text>
</g>
<!-- Node18 -->
<g id="node9" class="node">
<title> </title>
<g id="a_node9">
<polygon fill="white" stroke="#666666" points="535.5,-85 494.5,-85 494.5,-66 535.5,-66 535.5,-85"/>
<text text-anchor="middle" x="515" y="-73" font-family="Helvetica,sans-Serif" font-size="10.00">Used</text>
</g>
</g>
<!-- Node18&#45;&gt;Node9 -->
<g id="edge8" class="edge">
<title> </title>
<g id="a_edge8">
<path fill="none" stroke="#9a32cd" stroke-dasharray="5,2" d="M484.52,-65.62C417.32,-46.74 349.44,-28.6 311.27,-18.49"/>
<polygon fill="#9a32cd" stroke="#9a32cd" points="483.85,-69.07 494.42,-68.41 485.74,-62.33 483.85,-69.07"/>
</g>
<text text-anchor="middle" x="450.5" y="-40" font-family="Helvetica,sans-Serif" font-size="10.00" fill="grey">m_usedClass</text>
</g>
</g>
</svg>
