<?xml version="1.0" encoding="UTF-8" standalone="no"?>
<!DOCTYPE svg PUBLIC "-//W3C//DTD SVG 1.1//EN"
 "https://www.w3.org/Graphics/SVG/1.1/DTD/svg11.dtd"><!-- Generated by graphviz version 2.43.0 (0)
 -->
<!-- Title: Graphical Class Hierarchy Pages: 1 -->
<svg width="2494pt" height="859pt"
 viewBox="0.00 0.00 2494.00 859.00" xmlns="http://www.w3.org/2000/svg" xmlns:xlink="http://www.w3.org/1999/xlink">
<g id="graph0" class="graph" transform="scale(1 1) rotate(0) translate(4 855)">
<title/>
<!-- Node0 -->
<g id="Node000000" class="node">
<g id="a_Node000000"><a xlink:href="d8/dfb/class_translator.html" target="_top" xlink:title="Abstract base class for all translatable text fragments.">
<polygon fill="white" stroke="#666666" points="65,-93 0,-93 0,-74 65,-74 65,-93"/>
<text text-anchor="middle" x="32.5" y="-81" font-family="Helvetica,sans-Serif" font-size="10.00">Translator</text>
</a>
</g>
</g>
<!-- Node1 -->
<g id="Node000001" class="node">
<g id="a_Node000001"><a xlink:href="db/d6c/class_translator_adapter_base.html" target="_top" xlink:title="Base of the translator adapter tree.">
<polygon fill="white" stroke="#666666" points="228,-167 101,-167 101,-148 228,-148 228,-167"/>
<text text-anchor="middle" x="164.5" y="-155" font-family="Helvetica,sans-Serif" font-size="10.00">TranslatorAdapterBase</text>
</a>
</g>
</g>
<!-- Node0&#45;&gt;Node1 -->
<g id="edge382_Node000000_Node000001" class="edge">
<title/>
<path fill="none" stroke="#63b8ff" d="M49.9,-99.97C62.81,-112.12 81.78,-128.26 101,-138.5 108.01,-142.23 115.85,-145.34 123.56,-147.9"/>
<polygon fill="#63b8ff" stroke="#63b8ff" points="52.32,-97.44 42.69,-93.01 47.45,-102.47 52.32,-97.44"/>
</g>
<!-- Node52 -->
<g id="Node000052" class="node">
<g id="a_Node000052"><a xlink:href="d2/d4c/class_translator_brazilian.html" target="_top" xlink:title=" ">
<polygon fill="white" stroke="#666666" points="218,-130 111,-130 111,-111 218,-111 218,-130"/>
<text text-anchor="middle" x="164.5" y="-118" font-family="Helvetica,sans-Serif" font-size="10.00">TranslatorBrazilian</text>
</a>
</g>
</g>
<!-- Node0&#45;&gt;Node52 -->
<g id="edge433_Node000000_Node000052" class="edge">
<title/>
<path fill="none" stroke="#63b8ff" d="M75.32,-95.4C92.92,-100.41 113.13,-106.16 129.75,-110.9"/>
<polygon fill="#63b8ff" stroke="#63b8ff" points="75.88,-91.92 65.3,-92.55 73.96,-98.66 75.88,-91.92"/>
</g>
<!-- Node53 -->
<g id="Node000053" class="node">
<g id="a_Node000053"><a xlink:href="d9/d1b/class_translator_dutch.html" target="_top" xlink:title=" ">
<polygon fill="white" stroke="#666666" points="211,-93 118,-93 118,-74 211,-74 211,-93"/>
<text text-anchor="middle" x="164.5" y="-81" font-family="Helvetica,sans-Serif" font-size="10.00">TranslatorDutch</text>
</a>
</g>
</g>
<!-- Node0&#45;&gt;Node53 -->
<g id="edge434_Node000000_Node000053" class="edge">
<title/>
<path fill="none" stroke="#63b8ff" d="M75.32,-83.5C88.87,-83.5 103.97,-83.5 117.79,-83.5"/>
<polygon fill="#63b8ff" stroke="#63b8ff" points="75.3,-80 65.3,-83.5 75.3,-87 75.3,-80"/>
</g>
<!-- Node54 -->
<g id="Node000054" class="node">
<g id="a_Node000054"><a xlink:href="d6/d78/class_translator_english.html" target="_top" xlink:title=" ">
<polygon fill="white" stroke="#666666" points="214.5,-56 114.5,-56 114.5,-37 214.5,-37 214.5,-56"/>
<text text-anchor="middle" x="164.5" y="-44" font-family="Helvetica,sans-Serif" font-size="10.00">TranslatorEnglish</text>
</a>
</g>
</g>
<!-- Node0&#45;&gt;Node54 -->
<g id="edge435_Node000000_Node000054" class="edge">
<title/>
<path fill="none" stroke="#63b8ff" d="M75.32,-71.6C92.92,-66.59 113.13,-60.84 129.75,-56.1"/>
<polygon fill="#63b8ff" stroke="#63b8ff" points="73.96,-68.34 65.3,-74.45 75.88,-75.08 73.96,-68.34"/>
</g>
<!-- Node57 -->
<g id="Node000057" class="node">
<g id="a_Node000057"><a xlink:href="dc/df2/class_translator_portuguese.html" target="_top" xlink:title=" ">
<polygon fill="white" stroke="#666666" points="224,-19 105,-19 105,0 224,0 224,-19"/>
<text text-anchor="middle" x="164.5" y="-7" font-family="Helvetica,sans-Serif" font-size="10.00">TranslatorPortuguese</text>
</a>
</g>
</g>
<!-- Node0&#45;&gt;Node57 -->
<g id="edge438_Node000000_Node000057" class="edge">
<title/>
<path fill="none" stroke="#63b8ff" d="M49.8,-66.63C62.66,-54.21 81.6,-37.76 101,-27.5 107.29,-24.17 114.27,-21.4 121.22,-19.1"/>
<polygon fill="#63b8ff" stroke="#63b8ff" points="47.26,-64.23 42.63,-73.76 52.19,-69.19 47.26,-64.23"/>
</g>
<!-- Node2 -->
<g id="Node000002" class="node">
<g id="a_Node000002"><a xlink:href="db/d71/class_translator_adapter__1__9__6.html" target="_top" xlink:title=" ">
<polygon fill="white" stroke="#666666" points="401,-167 264,-167 264,-148 401,-148 401,-167"/>
<text text-anchor="middle" x="332.5" y="-155" font-family="Helvetica,sans-Serif" font-size="10.00">TranslatorAdapter_1_9_6</text>
</a>
</g>
</g>
<!-- Node1&#45;&gt;Node2 -->
<g id="edge383_Node000001_Node000002" class="edge">
<title/>
<path fill="none" stroke="#63b8ff" d="M238.49,-157.5C246.95,-157.5 255.56,-157.5 263.94,-157.5"/>
<polygon fill="#63b8ff" stroke="#63b8ff" points="238.26,-154 228.26,-157.5 238.26,-161 238.26,-154"/>
</g>
<!-- Node3 -->
<g id="Node000003" class="node">
<g id="a_Node000003"><a xlink:href="dd/dba/class_translator_adapter__1__9__5.html" target="_top" xlink:title=" ">
<polygon fill="white" stroke="#666666" points="574,-241 437,-241 437,-222 574,-222 574,-241"/>
<text text-anchor="middle" x="505.5" y="-229" font-family="Helvetica,sans-Serif" font-size="10.00">TranslatorAdapter_1_9_5</text>
</a>
</g>
</g>
<!-- Node2&#45;&gt;Node3 -->
<g id="edge384_Node000002_Node000003" class="edge">
<title/>
<path fill="none" stroke="#63b8ff" d="M357.82,-172.34C378.35,-184.4 408.83,-201.2 437,-212.5 445.93,-216.08 455.77,-219.26 465.12,-221.95"/>
<polygon fill="#63b8ff" stroke="#63b8ff" points="359.51,-169.27 349.13,-167.17 355.93,-175.29 359.51,-169.27"/>
</g>
<!-- Node48 -->
<g id="Node000048" class="node">
<g id="a_Node000048"><a xlink:href="dd/d8a/class_translator_czech.html" target="_top" xlink:title=" ">
<polygon fill="white" stroke="#666666" points="552.5,-204 458.5,-204 458.5,-185 552.5,-185 552.5,-204"/>
<text text-anchor="middle" x="505.5" y="-192" font-family="Helvetica,sans-Serif" font-size="10.00">TranslatorCzech</text>
</a>
</g>
</g>
<!-- Node2&#45;&gt;Node48 -->
<g id="edge429_Node000002_Node000048" class="edge">
<title/>
<path fill="none" stroke="#63b8ff" d="M387.35,-169.15C410.84,-174.23 438.04,-180.12 460.32,-184.94"/>
<polygon fill="#63b8ff" stroke="#63b8ff" points="388.05,-165.72 377.54,-167.03 386.57,-172.56 388.05,-165.72"/>
</g>
<!-- Node49 -->
<g id="Node000049" class="node">
<g id="a_Node000049"><a xlink:href="df/d75/class_translator_greek.html" target="_top" xlink:title=" ">
<polygon fill="white" stroke="#666666" points="552.5,-167 458.5,-167 458.5,-148 552.5,-148 552.5,-167"/>
<text text-anchor="middle" x="505.5" y="-155" font-family="Helvetica,sans-Serif" font-size="10.00">TranslatorGreek</text>
</a>
</g>
</g>
<!-- Node2&#45;&gt;Node49 -->
<g id="edge430_Node000002_Node000049" class="edge">
<title/>
<path fill="none" stroke="#63b8ff" d="M411.09,-157.5C427.28,-157.5 443.84,-157.5 458.44,-157.5"/>
<polygon fill="#63b8ff" stroke="#63b8ff" points="411.08,-154 401.08,-157.5 411.08,-161 411.08,-154"/>
</g>
<!-- Node50 -->
<g id="Node000050" class="node">
<g id="a_Node000050"><a xlink:href="dc/d44/class_translator_spanish.html" target="_top" xlink:title=" ">
<polygon fill="white" stroke="#666666" points="557,-130 454,-130 454,-111 557,-111 557,-130"/>
<text text-anchor="middle" x="505.5" y="-118" font-family="Helvetica,sans-Serif" font-size="10.00">TranslatorSpanish</text>
</a>
</g>
</g>
<!-- Node2&#45;&gt;Node50 -->
<g id="edge431_Node000002_Node000050" class="edge">
<title/>
<path fill="none" stroke="#63b8ff" d="M387.35,-145.85C410.84,-140.77 438.04,-134.88 460.32,-130.06"/>
<polygon fill="#63b8ff" stroke="#63b8ff" points="386.57,-142.44 377.54,-147.97 388.05,-149.28 386.57,-142.44"/>
</g>
<!-- Node51 -->
<g id="Node000051" class="node">
<g id="a_Node000051"><a xlink:href="d5/d5c/class_translator_swedish.html" target="_top" xlink:title=" ">
<polygon fill="white" stroke="#666666" points="558,-93 453,-93 453,-74 558,-74 558,-93"/>
<text text-anchor="middle" x="505.5" y="-81" font-family="Helvetica,sans-Serif" font-size="10.00">TranslatorSwedish</text>
</a>
</g>
</g>
<!-- Node2&#45;&gt;Node51 -->
<g id="edge432_Node000002_Node000051" class="edge">
<title/>
<path fill="none" stroke="#63b8ff" d="M357.03,-142.69C377.52,-130.3 408.35,-112.89 437,-101.5 445.11,-98.27 454,-95.44 462.59,-93.03"/>
<polygon fill="#63b8ff" stroke="#63b8ff" points="355.08,-139.78 348.39,-147.99 358.74,-145.74 355.08,-139.78"/>
</g>
<!-- Node4 -->
<g id="Node000004" class="node">
<g id="a_Node000004"><a xlink:href="d0/d33/class_translator_adapter__1__9__4.html" target="_top" xlink:title=" ">
<polygon fill="white" stroke="#666666" points="747,-259 610,-259 610,-240 747,-240 747,-259"/>
<text text-anchor="middle" x="678.5" y="-247" font-family="Helvetica,sans-Serif" font-size="10.00">TranslatorAdapter_1_9_4</text>
</a>
</g>
</g>
<!-- Node3&#45;&gt;Node4 -->
<g id="edge385_Node000003_Node000004" class="edge">
<title/>
<path fill="none" stroke="#63b8ff" d="M584.1,-239.67C592.69,-240.57 601.39,-241.49 609.85,-242.38"/>
<polygon fill="#63b8ff" stroke="#63b8ff" points="584.4,-236.18 574.08,-238.61 583.66,-243.14 584.4,-236.18"/>
</g>
<!-- Node47 -->
<g id="Node000047" class="node">
<g id="a_Node000047"><a xlink:href="da/d1a/class_translator_french.html" target="_top" xlink:title=" ">
<polygon fill="white" stroke="#666666" points="727,-222 630,-222 630,-203 727,-203 727,-222"/>
<text text-anchor="middle" x="678.5" y="-210" font-family="Helvetica,sans-Serif" font-size="10.00">TranslatorFrench</text>
</a>
</g>
</g>
<!-- Node3&#45;&gt;Node47 -->
<g id="edge428_Node000003_Node000047" class="edge">
<title/>
<path fill="none" stroke="#63b8ff" d="M584.24,-222.86C599.81,-221.13 615.72,-219.36 629.9,-217.79"/>
<polygon fill="#63b8ff" stroke="#63b8ff" points="583.64,-219.41 574.08,-223.99 584.41,-226.36 583.64,-219.41"/>
</g>
<!-- Node5 -->
<g id="Node000005" class="node">
<g id="a_Node000005"><a xlink:href="d3/d2e/class_translator_adapter__1__9__2.html" target="_top" xlink:title=" ">
<polygon fill="white" stroke="#666666" points="920,-315 783,-315 783,-296 920,-296 920,-315"/>
<text text-anchor="middle" x="851.5" y="-303" font-family="Helvetica,sans-Serif" font-size="10.00">TranslatorAdapter_1_9_2</text>
</a>
</g>
</g>
<!-- Node4&#45;&gt;Node5 -->
<g id="edge386_Node000004_Node000005" class="edge">
<title/>
<path fill="none" stroke="#63b8ff" d="M714.45,-262.67C734.42,-270.03 759.98,-279.16 783,-286.5 793.32,-289.79 804.63,-293.09 814.98,-296"/>
<polygon fill="#63b8ff" stroke="#63b8ff" points="715.45,-259.31 704.85,-259.12 713.01,-265.87 715.45,-259.31"/>
</g>
<!-- Node44 -->
<g id="Node000044" class="node">
<g id="a_Node000044"><a xlink:href="da/dbb/class_translator_bulgarian.html" target="_top" xlink:title=" ">
<polygon fill="white" stroke="#666666" points="907,-278 796,-278 796,-259 907,-259 907,-278"/>
<text text-anchor="middle" x="851.5" y="-266" font-family="Helvetica,sans-Serif" font-size="10.00">TranslatorBulgarian</text>
</a>
</g>
</g>
<!-- Node4&#45;&gt;Node44 -->
<g id="edge425_Node000004_Node000044" class="edge">
<title/>
<path fill="none" stroke="#63b8ff" d="M757.4,-258.16C770.36,-259.6 783.54,-261.06 795.77,-262.42"/>
<polygon fill="#63b8ff" stroke="#63b8ff" points="757.41,-254.64 747.08,-257.01 756.64,-261.59 757.41,-254.64"/>
</g>
<!-- Node45 -->
<g id="Node000045" class="node">
<g id="a_Node000045"><a xlink:href="d6/db6/class_translator_chinese.html" target="_top" xlink:title=" ">
<polygon fill="white" stroke="#666666" points="903.5,-241 799.5,-241 799.5,-222 903.5,-222 903.5,-241"/>
<text text-anchor="middle" x="851.5" y="-229" font-family="Helvetica,sans-Serif" font-size="10.00">TranslatorChinese</text>
</a>
</g>
</g>
<!-- Node4&#45;&gt;Node45 -->
<g id="edge426_Node000004_Node000045" class="edge">
<title/>
<path fill="none" stroke="#63b8ff" d="M757.41,-241.3C771.69,-239.8 786.26,-238.26 799.49,-236.87"/>
<polygon fill="#63b8ff" stroke="#63b8ff" points="756.66,-237.86 747.08,-242.39 757.4,-244.82 756.66,-237.86"/>
</g>
<!-- Node46 -->
<g id="Node000046" class="node">
<g id="a_Node000046"><a xlink:href="d1/d8a/class_translator_hindi.html" target="_top" xlink:title=" ">
<polygon fill="white" stroke="#666666" points="896.5,-204 806.5,-204 806.5,-185 896.5,-185 896.5,-204"/>
<text text-anchor="middle" x="851.5" y="-192" font-family="Helvetica,sans-Serif" font-size="10.00">TranslatorHindi</text>
</a>
</g>
</g>
<!-- Node4&#45;&gt;Node46 -->
<g id="edge427_Node000004_Node000046" class="edge">
<title/>
<path fill="none" stroke="#63b8ff" d="M728.11,-237.01C734.52,-235.02 740.96,-232.83 747,-230.5 763.68,-224.05 766.27,-218.84 783,-212.5 791.39,-209.32 800.57,-206.48 809.39,-204.04"/>
<polygon fill="#63b8ff" stroke="#63b8ff" points="726.7,-233.78 718.11,-239.99 728.69,-240.49 726.7,-233.78"/>
</g>
<!-- Node6 -->
<g id="Node000006" class="node">
<g id="a_Node000006"><a xlink:href="de/dde/class_translator_adapter__1__8__19.html" target="_top" xlink:title=" ">
<polygon fill="white" stroke="#666666" points="1099,-315 956,-315 956,-296 1099,-296 1099,-315"/>
<text text-anchor="middle" x="1027.5" y="-303" font-family="Helvetica,sans-Serif" font-size="10.00">TranslatorAdapter_1_8_19</text>
</a>
</g>
</g>
<!-- Node5&#45;&gt;Node6 -->
<g id="edge387_Node000005_Node000006" class="edge">
<title/>
<path fill="none" stroke="#63b8ff" d="M930.47,-305.5C938.89,-305.5 947.42,-305.5 955.75,-305.5"/>
<polygon fill="#63b8ff" stroke="#63b8ff" points="930.27,-302 920.27,-305.5 930.27,-309 930.27,-302"/>
</g>
<!-- Node7 -->
<g id="Node000007" class="node">
<g id="a_Node000007"><a xlink:href="d4/d2e/class_translator_adapter__1__8__15.html" target="_top" xlink:title=" ">
<polygon fill="white" stroke="#666666" points="1278,-315 1135,-315 1135,-296 1278,-296 1278,-315"/>
<text text-anchor="middle" x="1206.5" y="-303" font-family="Helvetica,sans-Serif" font-size="10.00">TranslatorAdapter_1_8_15</text>
</a>
</g>
</g>
<!-- Node6&#45;&gt;Node7 -->
<g id="edge388_Node000006_Node000007" class="edge">
<title/>
<path fill="none" stroke="#63b8ff" d="M1109.49,-305.5C1117.97,-305.5 1126.54,-305.5 1134.89,-305.5"/>
<polygon fill="#63b8ff" stroke="#63b8ff" points="1109.22,-302 1099.22,-305.5 1109.22,-309 1109.22,-302"/>
</g>
<!-- Node8 -->
<g id="Node000008" class="node">
<g id="a_Node000008"><a xlink:href="de/d2f/class_translator_adapter__1__8__4.html" target="_top" xlink:title=" ">
<polygon fill="white" stroke="#666666" points="1459.5,-482 1322.5,-482 1322.5,-463 1459.5,-463 1459.5,-482"/>
<text text-anchor="middle" x="1391" y="-470" font-family="Helvetica,sans-Serif" font-size="10.00">TranslatorAdapter_1_8_4</text>
</a>
</g>
</g>
<!-- Node7&#45;&gt;Node8 -->
<g id="edge389_Node000007_Node000008" class="edge">
<title/>
<path fill="none" stroke="#63b8ff" d="M1215.89,-324.78C1230.81,-356.7 1265.04,-420.29 1314,-453.5 1319.74,-457.39 1326.21,-460.49 1332.89,-462.95"/>
<polygon fill="#63b8ff" stroke="#63b8ff" points="1218.89,-322.93 1211.58,-315.26 1212.52,-325.81 1218.89,-322.93"/>
</g>
<!-- Node35 -->
<g id="Node000035" class="node">
<g id="a_Node000035"><a xlink:href="dd/df6/class_translator_chinesetraditional.html" target="_top" xlink:title=" ">
<polygon fill="white" stroke="#666666" points="1468,-445 1314,-445 1314,-426 1468,-426 1468,-445"/>
<text text-anchor="middle" x="1391" y="-433" font-family="Helvetica,sans-Serif" font-size="10.00">TranslatorChinesetraditional</text>
</a>
</g>
</g>
<!-- Node7&#45;&gt;Node35 -->
<g id="edge416_Node000007_Node000035" class="edge">
<title/>
<path fill="none" stroke="#63b8ff" d="M1219.88,-323.77C1237.71,-348.63 1273.03,-392.74 1314,-416.5 1320.71,-420.39 1328.19,-423.49 1335.78,-425.96"/>
<polygon fill="#63b8ff" stroke="#63b8ff" points="1222.53,-321.45 1213.93,-315.26 1216.79,-325.46 1222.53,-321.45"/>
</g>
<!-- Node36 -->
<g id="Node000036" class="node">
<g id="a_Node000036"><a xlink:href="d6/d07/class_translator_german.html" target="_top" xlink:title=" ">
<polygon fill="white" stroke="#666666" points="1443,-408 1339,-408 1339,-389 1443,-389 1443,-408"/>
<text text-anchor="middle" x="1391" y="-396" font-family="Helvetica,sans-Serif" font-size="10.00">TranslatorGerman</text>
</a>
</g>
</g>
<!-- Node7&#45;&gt;Node36 -->
<g id="edge417_Node000007_Node000036" class="edge">
<title/>
<path fill="none" stroke="#63b8ff" d="M1226.32,-321.77C1246.65,-338.56 1280.63,-364.35 1314,-379.5 1322.42,-383.32 1331.73,-386.46 1340.86,-388.99"/>
<polygon fill="#63b8ff" stroke="#63b8ff" points="1228.39,-318.94 1218.48,-315.19 1223.89,-324.3 1228.39,-318.94"/>
</g>
<!-- Node37 -->
<g id="Node000037" class="node">
<g id="a_Node000037"><a xlink:href="db/d5f/class_translator_hungarian.html" target="_top" xlink:title=" ">
<polygon fill="white" stroke="#666666" points="1448.5,-371 1333.5,-371 1333.5,-352 1448.5,-352 1448.5,-371"/>
<text text-anchor="middle" x="1391" y="-359" font-family="Helvetica,sans-Serif" font-size="10.00">TranslatorHungarian</text>
</a>
</g>
</g>
<!-- Node7&#45;&gt;Node37 -->
<g id="edge418_Node000007_Node000037" class="edge">
<title/>
<path fill="none" stroke="#63b8ff" d="M1242.72,-318.62C1263.35,-326.09 1289.98,-335.34 1314,-342.5 1325.21,-345.84 1337.46,-349.08 1348.8,-351.91"/>
<polygon fill="#63b8ff" stroke="#63b8ff" points="1243.71,-315.26 1233.11,-315.12 1241.31,-321.84 1243.71,-315.26"/>
</g>
<!-- Node38 -->
<g id="Node000038" class="node">
<g id="a_Node000038"><a xlink:href="d2/df8/class_translator_italian.html" target="_top" xlink:title=" ">
<polygon fill="white" stroke="#666666" points="1438.5,-334 1343.5,-334 1343.5,-315 1438.5,-315 1438.5,-334"/>
<text text-anchor="middle" x="1391" y="-322" font-family="Helvetica,sans-Serif" font-size="10.00">TranslatorItalian</text>
</a>
</g>
</g>
<!-- Node7&#45;&gt;Node38 -->
<g id="edge419_Node000007_Node000038" class="edge">
<title/>
<path fill="none" stroke="#63b8ff" d="M1288.15,-313.9C1307.01,-315.86 1326.48,-317.89 1343.29,-319.64"/>
<polygon fill="#63b8ff" stroke="#63b8ff" points="1288.37,-310.4 1278.06,-312.85 1287.64,-317.36 1288.37,-310.4"/>
</g>
<!-- Node39 -->
<g id="Node000039" class="node">
<g id="a_Node000039"><a xlink:href="d1/d6a/class_translator_japanese.html" target="_top" xlink:title=" ">
<polygon fill="white" stroke="#666666" points="1445.5,-297 1336.5,-297 1336.5,-278 1445.5,-278 1445.5,-297"/>
<text text-anchor="middle" x="1391" y="-285" font-family="Helvetica,sans-Serif" font-size="10.00">TranslatorJapanese</text>
</a>
</g>
</g>
<!-- Node7&#45;&gt;Node39 -->
<g id="edge420_Node000007_Node000039" class="edge">
<title/>
<path fill="none" stroke="#63b8ff" d="M1288.14,-297.55C1304.45,-295.94 1321.22,-294.28 1336.33,-292.79"/>
<polygon fill="#63b8ff" stroke="#63b8ff" points="1287.67,-294.08 1278.06,-298.54 1288.35,-301.04 1287.67,-294.08"/>
</g>
<!-- Node40 -->
<g id="Node000040" class="node">
<g id="a_Node000040"><a xlink:href="db/dcc/class_translator_korean.html" target="_top" xlink:title=" ">
<polygon fill="white" stroke="#666666" points="1440,-260 1342,-260 1342,-241 1440,-241 1440,-260"/>
<text text-anchor="middle" x="1391" y="-248" font-family="Helvetica,sans-Serif" font-size="10.00">TranslatorKorean</text>
</a>
</g>
</g>
<!-- Node7&#45;&gt;Node40 -->
<g id="edge421_Node000007_Node000040" class="edge">
<title/>
<path fill="none" stroke="#63b8ff" d="M1242.27,-292.41C1262.94,-284.89 1289.78,-275.56 1314,-268.5 1324.41,-265.47 1335.74,-262.57 1346.39,-260.02"/>
<polygon fill="#63b8ff" stroke="#63b8ff" points="1240.84,-289.21 1232.66,-295.95 1243.25,-295.78 1240.84,-289.21"/>
</g>
<!-- Node41 -->
<g id="Node000041" class="node">
<g id="a_Node000041"><a xlink:href="da/d32/class_translator_romanian.html" target="_top" xlink:title=" ">
<polygon fill="white" stroke="#666666" points="1448,-223 1334,-223 1334,-204 1448,-204 1448,-223"/>
<text text-anchor="middle" x="1391" y="-211" font-family="Helvetica,sans-Serif" font-size="10.00">TranslatorRomanian</text>
</a>
</g>
</g>
<!-- Node7&#45;&gt;Node41 -->
<g id="edge422_Node000007_Node000041" class="edge">
<title/>
<path fill="none" stroke="#63b8ff" d="M1226.28,-289.14C1246.58,-272.29 1280.54,-246.44 1314,-231.5 1321.55,-228.13 1329.82,-225.34 1338.04,-223.05"/>
<polygon fill="#63b8ff" stroke="#63b8ff" points="1223.83,-286.63 1218.46,-295.76 1228.35,-291.97 1223.83,-286.63"/>
</g>
<!-- Node42 -->
<g id="Node000042" class="node">
<g id="a_Node000042"><a xlink:href="d0/dab/class_translator_russian.html" target="_top" xlink:title=" ">
<polygon fill="white" stroke="#666666" points="1442.5,-186 1339.5,-186 1339.5,-167 1442.5,-167 1442.5,-186"/>
<text text-anchor="middle" x="1391" y="-174" font-family="Helvetica,sans-Serif" font-size="10.00">TranslatorRussian</text>
</a>
</g>
</g>
<!-- Node7&#45;&gt;Node42 -->
<g id="edge423_Node000007_Node000042" class="edge">
<title/>
<path fill="none" stroke="#63b8ff" d="M1219.84,-287.16C1237.62,-262.21 1272.88,-218.01 1314,-194.5 1321.77,-190.06 1330.58,-186.71 1339.39,-184.19"/>
<polygon fill="#63b8ff" stroke="#63b8ff" points="1216.74,-285.49 1213.9,-295.69 1222.49,-289.48 1216.74,-285.49"/>
</g>
<!-- Node43 -->
<g id="Node000043" class="node">
<g id="a_Node000043"><a xlink:href="d2/d53/class_translator_slovak.html" target="_top" xlink:title=" ">
<polygon fill="white" stroke="#666666" points="1440,-149 1342,-149 1342,-130 1440,-130 1440,-149"/>
<text text-anchor="middle" x="1391" y="-137" font-family="Helvetica,sans-Serif" font-size="10.00">TranslatorSlovak</text>
</a>
</g>
</g>
<!-- Node7&#45;&gt;Node43 -->
<g id="edge424_Node000007_Node000043" class="edge">
<title/>
<path fill="none" stroke="#63b8ff" d="M1215.66,-286.57C1230.4,-254.69 1264.62,-190.55 1314,-157.5 1322.23,-151.99 1331.94,-148.17 1341.63,-145.5"/>
<polygon fill="#63b8ff" stroke="#63b8ff" points="1212.46,-285.15 1211.56,-295.7 1218.84,-288.01 1212.46,-285.15"/>
</g>
<!-- Node9 -->
<g id="Node000009" class="node">
<g id="a_Node000009"><a xlink:href="d2/d75/class_translator_adapter__1__8__2.html" target="_top" xlink:title=" ">
<polygon fill="white" stroke="#666666" points="1641,-537 1504,-537 1504,-518 1641,-518 1641,-537"/>
<text text-anchor="middle" x="1572.5" y="-525" font-family="Helvetica,sans-Serif" font-size="10.00">TranslatorAdapter_1_8_2</text>
</a>
</g>
</g>
<!-- Node8&#45;&gt;Node9 -->
<g id="edge390_Node000008_Node000009" class="edge">
<title/>
<path fill="none" stroke="#63b8ff" d="M1430.67,-485.32C1452.2,-492.35 1479.52,-501.12 1504,-508.5 1514.61,-511.7 1526.2,-515.02 1536.74,-517.98"/>
<polygon fill="#63b8ff" stroke="#63b8ff" points="1431.51,-481.91 1420.92,-482.12 1429.33,-488.56 1431.51,-481.91"/>
</g>
<!-- Node32 -->
<g id="Node000032" class="node">
<g id="a_Node000032"><a xlink:href="d2/d07/class_translator_esperanto.html" target="_top" xlink:title=" ">
<polygon fill="white" stroke="#666666" points="1629,-500 1516,-500 1516,-481 1629,-481 1629,-500"/>
<text text-anchor="middle" x="1572.5" y="-488" font-family="Helvetica,sans-Serif" font-size="10.00">TranslatorEsperanto</text>
</a>
</g>
</g>
<!-- Node8&#45;&gt;Node32 -->
<g id="edge413_Node000008_Node000032" class="edge">
<title/>
<path fill="none" stroke="#63b8ff" d="M1469.73,-480.3C1485.29,-481.85 1501.33,-483.46 1515.95,-484.93"/>
<polygon fill="#63b8ff" stroke="#63b8ff" points="1469.9,-476.79 1459.61,-479.28 1469.21,-483.76 1469.9,-476.79"/>
</g>
<!-- Node33 -->
<g id="Node000033" class="node">
<g id="a_Node000033"><a xlink:href="d8/d83/class_translator_latvian.html" target="_top" xlink:title=" ">
<polygon fill="white" stroke="#666666" points="1623,-463 1522,-463 1522,-444 1623,-444 1623,-463"/>
<text text-anchor="middle" x="1572.5" y="-451" font-family="Helvetica,sans-Serif" font-size="10.00">TranslatorLatvian</text>
</a>
</g>
</g>
<!-- Node8&#45;&gt;Node33 -->
<g id="edge414_Node000008_Node000033" class="edge">
<title/>
<path fill="none" stroke="#63b8ff" d="M1469.89,-464.26C1487.52,-462.39 1505.78,-460.46 1521.86,-458.75"/>
<polygon fill="#63b8ff" stroke="#63b8ff" points="1469.18,-460.81 1459.61,-465.34 1469.92,-467.77 1469.18,-460.81"/>
</g>
<!-- Node34 -->
<g id="Node000034" class="node">
<g id="a_Node000034"><a xlink:href="d1/d56/class_translator_ukrainian.html" target="_top" xlink:title=" ">
<polygon fill="white" stroke="#666666" points="1628.5,-426 1516.5,-426 1516.5,-407 1628.5,-407 1628.5,-426"/>
<text text-anchor="middle" x="1572.5" y="-414" font-family="Helvetica,sans-Serif" font-size="10.00">TranslatorUkrainian</text>
</a>
</g>
</g>
<!-- Node8&#45;&gt;Node34 -->
<g id="edge415_Node000008_Node000034" class="edge">
<title/>
<path fill="none" stroke="#63b8ff" d="M1447.94,-460.16C1454.77,-458.17 1461.6,-455.95 1468,-453.5 1484.9,-447.04 1487.15,-441.09 1504,-434.5 1512.13,-431.32 1521.03,-428.5 1529.62,-426.1"/>
<polygon fill="#63b8ff" stroke="#63b8ff" points="1446.68,-456.87 1437.96,-462.9 1448.54,-463.62 1446.68,-456.87"/>
</g>
<!-- Node10 -->
<g id="Node000010" class="node">
<g id="a_Node000010"><a xlink:href="de/d49/class_translator_adapter__1__8__0.html" target="_top" xlink:title="Adapter class for languages that only contain translations up to version 1.8.0.">
<polygon fill="white" stroke="#666666" points="1814,-574 1677,-574 1677,-555 1814,-555 1814,-574"/>
<text text-anchor="middle" x="1745.5" y="-562" font-family="Helvetica,sans-Serif" font-size="10.00">TranslatorAdapter_1_8_0</text>
</a>
</g>
</g>
<!-- Node9&#45;&gt;Node10 -->
<g id="edge391_Node000009_Node000010" class="edge">
<title/>
<path fill="none" stroke="#63b8ff" d="M1627.35,-539.15C1650.84,-544.23 1678.04,-550.12 1700.32,-554.94"/>
<polygon fill="#63b8ff" stroke="#63b8ff" points="1628.05,-535.72 1617.54,-537.03 1626.57,-542.56 1628.05,-535.72"/>
</g>
<!-- Node30 -->
<g id="Node000030" class="node">
<g id="a_Node000030"><a xlink:href="d9/d82/class_translator_croatian.html" target="_top" xlink:title=" ">
<polygon fill="white" stroke="#666666" points="1798.5,-537 1692.5,-537 1692.5,-518 1798.5,-518 1798.5,-537"/>
<text text-anchor="middle" x="1745.5" y="-525" font-family="Helvetica,sans-Serif" font-size="10.00">TranslatorCroatian</text>
</a>
</g>
</g>
<!-- Node9&#45;&gt;Node30 -->
<g id="edge411_Node000009_Node000030" class="edge">
<title/>
<path fill="none" stroke="#63b8ff" d="M1651.19,-527.5C1665.16,-527.5 1679.41,-527.5 1692.44,-527.5"/>
<polygon fill="#63b8ff" stroke="#63b8ff" points="1651.08,-524 1641.08,-527.5 1651.08,-531 1651.08,-524"/>
</g>
<!-- Node31 -->
<g id="Node000031" class="node">
<g id="a_Node000031"><a xlink:href="de/d82/class_translator_polish.html" target="_top" xlink:title=" ">
<polygon fill="white" stroke="#666666" points="1792.5,-500 1698.5,-500 1698.5,-481 1792.5,-481 1792.5,-500"/>
<text text-anchor="middle" x="1745.5" y="-488" font-family="Helvetica,sans-Serif" font-size="10.00">TranslatorPolish</text>
</a>
</g>
</g>
<!-- Node9&#45;&gt;Node31 -->
<g id="edge412_Node000009_Node000031" class="edge">
<title/>
<path fill="none" stroke="#63b8ff" d="M1627.35,-515.85C1650.84,-510.77 1678.04,-504.88 1700.32,-500.06"/>
<polygon fill="#63b8ff" stroke="#63b8ff" points="1626.57,-512.44 1617.54,-517.97 1628.05,-519.28 1626.57,-512.44"/>
</g>
<!-- Node11 -->
<g id="Node000011" class="node">
<g id="a_Node000011"><a xlink:href="da/d24/class_translator_adapter__1__7__5.html" target="_top" xlink:title="Adapter class for languages that only contain translations up to version 1.7.5.">
<polygon fill="white" stroke="#666666" points="1987,-648 1850,-648 1850,-629 1987,-629 1987,-648"/>
<text text-anchor="middle" x="1918.5" y="-636" font-family="Helvetica,sans-Serif" font-size="10.00">TranslatorAdapter_1_7_5</text>
</a>
</g>
</g>
<!-- Node10&#45;&gt;Node11 -->
<g id="edge392_Node000010_Node000011" class="edge">
<title/>
<path fill="none" stroke="#63b8ff" d="M1770.82,-579.34C1791.35,-591.4 1821.83,-608.2 1850,-619.5 1858.93,-623.08 1868.77,-626.26 1878.12,-628.95"/>
<polygon fill="#63b8ff" stroke="#63b8ff" points="1772.51,-576.27 1762.13,-574.17 1768.93,-582.29 1772.51,-576.27"/>
</g>
<!-- Node26 -->
<g id="Node000026" class="node">
<g id="a_Node000026"><a xlink:href="da/db8/class_translator_armenian.html" target="_top" xlink:title=" ">
<polygon fill="white" stroke="#666666" points="1974.5,-611 1862.5,-611 1862.5,-592 1974.5,-592 1974.5,-611"/>
<text text-anchor="middle" x="1918.5" y="-599" font-family="Helvetica,sans-Serif" font-size="10.00">TranslatorArmenian</text>
</a>
</g>
</g>
<!-- Node10&#45;&gt;Node26 -->
<g id="edge407_Node000010_Node000026" class="edge">
<title/>
<path fill="none" stroke="#63b8ff" d="M1800.35,-576.15C1823.84,-581.23 1851.04,-587.12 1873.32,-591.94"/>
<polygon fill="#63b8ff" stroke="#63b8ff" points="1801.05,-572.72 1790.54,-574.03 1799.57,-579.56 1801.05,-572.72"/>
</g>
<!-- Node27 -->
<g id="Node000027" class="node">
<g id="a_Node000027"><a xlink:href="d9/dc1/class_translator_catalan.html" target="_top" xlink:title=" ">
<polygon fill="white" stroke="#666666" points="1969.5,-574 1867.5,-574 1867.5,-555 1969.5,-555 1969.5,-574"/>
<text text-anchor="middle" x="1918.5" y="-562" font-family="Helvetica,sans-Serif" font-size="10.00">TranslatorCatalan</text>
</a>
</g>
</g>
<!-- Node10&#45;&gt;Node27 -->
<g id="edge408_Node000010_Node000027" class="edge">
<title/>
<path fill="none" stroke="#63b8ff" d="M1824.15,-564.5C1838.8,-564.5 1853.76,-564.5 1867.28,-564.5"/>
<polygon fill="#63b8ff" stroke="#63b8ff" points="1824.08,-561 1814.08,-564.5 1824.08,-568 1824.08,-561"/>
</g>
<!-- Node28 -->
<g id="Node000028" class="node">
<g id="a_Node000028"><a xlink:href="d7/d21/class_translator_danish.html" target="_top" xlink:title=" ">
<polygon fill="white" stroke="#666666" points="1967.5,-537 1869.5,-537 1869.5,-518 1967.5,-518 1967.5,-537"/>
<text text-anchor="middle" x="1918.5" y="-525" font-family="Helvetica,sans-Serif" font-size="10.00">TranslatorDanish</text>
</a>
</g>
</g>
<!-- Node10&#45;&gt;Node28 -->
<g id="edge409_Node000010_Node000028" class="edge">
<title/>
<path fill="none" stroke="#63b8ff" d="M1800.35,-552.85C1823.84,-547.77 1851.04,-541.88 1873.32,-537.06"/>
<polygon fill="#63b8ff" stroke="#63b8ff" points="1799.57,-549.44 1790.54,-554.97 1801.05,-556.28 1799.57,-549.44"/>
</g>
<!-- Node29 -->
<g id="Node000029" class="node">
<g id="a_Node000029"><a xlink:href="df/dc8/class_translator_indonesian.html" target="_top" xlink:title=" ">
<polygon fill="white" stroke="#666666" points="1977.5,-500 1859.5,-500 1859.5,-481 1977.5,-481 1977.5,-500"/>
<text text-anchor="middle" x="1918.5" y="-488" font-family="Helvetica,sans-Serif" font-size="10.00">TranslatorIndonesian</text>
</a>
</g>
</g>
<!-- Node10&#45;&gt;Node29 -->
<g id="edge410_Node000010_Node000029" class="edge">
<title/>
<path fill="none" stroke="#63b8ff" d="M1802.42,-551.32C1806.44,-549.6 1810.35,-547.67 1814,-545.5 1833.72,-533.77 1830.2,-520.1 1850,-508.5 1855.86,-505.07 1862.39,-502.28 1869.01,-500.01"/>
<polygon fill="#63b8ff" stroke="#63b8ff" points="1800.97,-548.13 1792.86,-554.95 1803.46,-554.67 1800.97,-548.13"/>
</g>
<!-- Node12 -->
<g id="Node000012" class="node">
<g id="a_Node000012"><a xlink:href="d3/da1/class_translator_adapter__1__6__0.html" target="_top" xlink:title="Adapter class for languages that only contain translations up to version 1.6.0.">
<polygon fill="white" stroke="#666666" points="2160,-685 2023,-685 2023,-666 2160,-666 2160,-685"/>
<text text-anchor="middle" x="2091.5" y="-673" font-family="Helvetica,sans-Serif" font-size="10.00">TranslatorAdapter_1_6_0</text>
</a>
</g>
</g>
<!-- Node11&#45;&gt;Node12 -->
<g id="edge393_Node000011_Node000012" class="edge">
<title/>
<path fill="none" stroke="#63b8ff" d="M1973.35,-650.15C1996.84,-655.23 2024.04,-661.12 2046.32,-665.94"/>
<polygon fill="#63b8ff" stroke="#63b8ff" points="1974.05,-646.72 1963.54,-648.03 1972.57,-653.56 1974.05,-646.72"/>
</g>
<!-- Node24 -->
<g id="Node000024" class="node">
<g id="a_Node000024"><a xlink:href="d5/d43/class_translator_persian.html" target="_top" xlink:title=" ">
<polygon fill="white" stroke="#666666" points="2142,-648 2041,-648 2041,-629 2142,-629 2142,-648"/>
<text text-anchor="middle" x="2091.5" y="-636" font-family="Helvetica,sans-Serif" font-size="10.00">TranslatorPersian</text>
</a>
</g>
</g>
<!-- Node11&#45;&gt;Node24 -->
<g id="edge405_Node000011_Node000024" class="edge">
<title/>
<path fill="none" stroke="#63b8ff" d="M1997.26,-638.5C2012.06,-638.5 2027.18,-638.5 2040.81,-638.5"/>
<polygon fill="#63b8ff" stroke="#63b8ff" points="1997.08,-635 1987.08,-638.5 1997.08,-642 1997.08,-635"/>
</g>
<!-- Node25 -->
<g id="Node000025" class="node">
<g id="a_Node000025"><a xlink:href="dd/d80/class_translator_turkish.html" target="_top" xlink:title=" ">
<polygon fill="white" stroke="#666666" points="2141,-611 2042,-611 2042,-592 2141,-592 2141,-611"/>
<text text-anchor="middle" x="2091.5" y="-599" font-family="Helvetica,sans-Serif" font-size="10.00">TranslatorTurkish</text>
</a>
</g>
</g>
<!-- Node11&#45;&gt;Node25 -->
<g id="edge406_Node000011_Node000025" class="edge">
<title/>
<path fill="none" stroke="#63b8ff" d="M1973.35,-626.85C1996.84,-621.77 2024.04,-615.88 2046.32,-611.06"/>
<polygon fill="#63b8ff" stroke="#63b8ff" points="1972.57,-623.44 1963.54,-628.97 1974.05,-630.28 1972.57,-623.44"/>
</g>
<!-- Node13 -->
<g id="Node000013" class="node">
<g id="a_Node000013"><a xlink:href="d4/d2b/class_translator_adapter__1__4__6.html" target="_top" xlink:title="Adapter class for languages that only contain translations up to version 1.4.6.">
<polygon fill="white" stroke="#666666" points="2333,-796 2196,-796 2196,-777 2333,-777 2333,-796"/>
<text text-anchor="middle" x="2264.5" y="-784" font-family="Helvetica,sans-Serif" font-size="10.00">TranslatorAdapter_1_4_6</text>
</a>
</g>
</g>
<!-- Node12&#45;&gt;Node13 -->
<g id="edge394_Node000012_Node000013" class="edge">
<title/>
<path fill="none" stroke="#63b8ff" d="M2107.01,-692.8C2125.54,-713.78 2159.59,-748.79 2196,-768.5 2202.29,-771.91 2209.27,-774.7 2216.28,-776.98"/>
<polygon fill="#63b8ff" stroke="#63b8ff" points="2109.46,-690.28 2100.27,-685 2104.17,-694.86 2109.46,-690.28"/>
</g>
<!-- Node18 -->
<g id="Node000018" class="node">
<g id="a_Node000018"><a xlink:href="d3/d65/class_translator_afrikaans.html" target="_top" xlink:title=" ">
<polygon fill="white" stroke="#666666" points="2319.5,-759 2209.5,-759 2209.5,-740 2319.5,-740 2319.5,-759"/>
<text text-anchor="middle" x="2264.5" y="-747" font-family="Helvetica,sans-Serif" font-size="10.00">TranslatorAfrikaans</text>
</a>
</g>
</g>
<!-- Node12&#45;&gt;Node18 -->
<g id="edge399_Node000012_Node000018" class="edge">
<title/>
<path fill="none" stroke="#63b8ff" d="M2116.03,-690.31C2136.52,-702.7 2167.35,-720.11 2196,-731.5 2204.11,-734.73 2213,-737.56 2221.59,-739.97"/>
<polygon fill="#63b8ff" stroke="#63b8ff" points="2117.74,-687.26 2107.39,-685.01 2114.08,-693.22 2117.74,-687.26"/>
</g>
<!-- Node19 -->
<g id="Node000019" class="node">
<g id="a_Node000019"><a xlink:href="de/df7/class_translator_finnish.html" target="_top" xlink:title=" ">
<polygon fill="white" stroke="#666666" points="2314,-722 2215,-722 2215,-703 2314,-703 2314,-722"/>
<text text-anchor="middle" x="2264.5" y="-710" font-family="Helvetica,sans-Serif" font-size="10.00">TranslatorFinnish</text>
</a>
</g>
</g>
<!-- Node12&#45;&gt;Node19 -->
<g id="edge400_Node000012_Node000019" class="edge">
<title/>
<path fill="none" stroke="#63b8ff" d="M2146.35,-687.15C2169.84,-692.23 2197.04,-698.12 2219.32,-702.94"/>
<polygon fill="#63b8ff" stroke="#63b8ff" points="2147.05,-683.72 2136.54,-685.03 2145.57,-690.56 2147.05,-683.72"/>
</g>
<!-- Node20 -->
<g id="Node000020" class="node">
<g id="a_Node000020"><a xlink:href="d9/ddf/class_translator_macedonian.html" target="_top" xlink:title=" ">
<polygon fill="white" stroke="#666666" points="2326.5,-685 2202.5,-685 2202.5,-666 2326.5,-666 2326.5,-685"/>
<text text-anchor="middle" x="2264.5" y="-673" font-family="Helvetica,sans-Serif" font-size="10.00">TranslatorMacedonian</text>
</a>
</g>
</g>
<!-- Node12&#45;&gt;Node20 -->
<g id="edge401_Node000012_Node000020" class="edge">
<title/>
<path fill="none" stroke="#63b8ff" d="M2170.28,-675.5C2181,-675.5 2191.88,-675.5 2202.24,-675.5"/>
<polygon fill="#63b8ff" stroke="#63b8ff" points="2170.08,-672 2160.08,-675.5 2170.08,-679 2170.08,-672"/>
</g>
<!-- Node21 -->
<g id="Node000021" class="node">
<g id="a_Node000021"><a xlink:href="d5/d0a/class_translator_serbian.html" target="_top" xlink:title=" ">
<polygon fill="white" stroke="#666666" points="2315,-648 2214,-648 2214,-629 2315,-629 2315,-648"/>
<text text-anchor="middle" x="2264.5" y="-636" font-family="Helvetica,sans-Serif" font-size="10.00">TranslatorSerbian</text>
</a>
</g>
</g>
<!-- Node12&#45;&gt;Node21 -->
<g id="edge402_Node000012_Node000021" class="edge">
<title/>
<path fill="none" stroke="#63b8ff" d="M2146.35,-663.85C2169.84,-658.77 2197.04,-652.88 2219.32,-648.06"/>
<polygon fill="#63b8ff" stroke="#63b8ff" points="2145.57,-660.44 2136.54,-665.97 2147.05,-667.28 2145.57,-660.44"/>
</g>
<!-- Node22 -->
<g id="Node000022" class="node">
<g id="a_Node000022"><a xlink:href="dc/d03/class_translator_serbian_cyrillic.html" target="_top" xlink:title=" ">
<polygon fill="white" stroke="#666666" points="2332,-611 2197,-611 2197,-592 2332,-592 2332,-611"/>
<text text-anchor="middle" x="2264.5" y="-599" font-family="Helvetica,sans-Serif" font-size="10.00">TranslatorSerbianCyrillic</text>
</a>
</g>
</g>
<!-- Node12&#45;&gt;Node22 -->
<g id="edge403_Node000012_Node000022" class="edge">
<title/>
<path fill="none" stroke="#63b8ff" d="M2148.42,-662.32C2152.44,-660.6 2156.35,-658.67 2160,-656.5 2179.72,-644.77 2176.2,-631.1 2196,-619.5 2201.86,-616.07 2208.39,-613.28 2215.01,-611.01"/>
<polygon fill="#63b8ff" stroke="#63b8ff" points="2146.97,-659.13 2138.86,-665.95 2149.46,-665.67 2146.97,-659.13"/>
</g>
<!-- Node23 -->
<g id="Node000023" class="node">
<g id="a_Node000023"><a xlink:href="df/d20/class_translator_vietnamese.html" target="_top" xlink:title=" ">
<polygon fill="white" stroke="#666666" points="2326,-574 2203,-574 2203,-555 2326,-555 2326,-574"/>
<text text-anchor="middle" x="2264.5" y="-562" font-family="Helvetica,sans-Serif" font-size="10.00">TranslatorVietnamese</text>
</a>
</g>
</g>
<!-- Node12&#45;&gt;Node23 -->
<g id="edge404_Node000012_Node000023" class="edge">
<title/>
<path fill="none" stroke="#63b8ff" d="M2153.48,-661.18C2155.77,-659.76 2157.96,-658.21 2160,-656.5 2188.06,-633.04 2167.78,-605.76 2196,-582.5 2200.12,-579.11 2204.81,-576.35 2209.77,-574.1"/>
<polygon fill="#63b8ff" stroke="#63b8ff" points="2151.48,-658.27 2144.21,-665.97 2154.7,-664.49 2151.48,-658.27"/>
</g>
<!-- Node14 -->
<g id="Node000014" class="node">
<g id="a_Node000014"><a xlink:href="d3/de9/class_translator_arabic.html" target="_top" xlink:title=" ">
<polygon fill="white" stroke="#666666" points="2475,-851 2380,-851 2380,-832 2475,-832 2475,-851"/>
<text text-anchor="middle" x="2427.5" y="-839" font-family="Helvetica,sans-Serif" font-size="10.00">TranslatorArabic</text>
</a>
</g>
</g>
<!-- Node13&#45;&gt;Node14 -->
<g id="edge395_Node000013_Node000014" class="edge">
<title/>
<path fill="none" stroke="#63b8ff" d="M2300.94,-799.57C2320.87,-806.81 2346.25,-815.88 2369,-823.5 2377.43,-826.33 2386.6,-829.26 2395.09,-831.92"/>
<polygon fill="#63b8ff" stroke="#63b8ff" points="2301.94,-796.2 2291.35,-796.06 2299.54,-802.78 2301.94,-796.2"/>
</g>
<!-- Node15 -->
<g id="Node000015" class="node">
<g id="a_Node000015"><a xlink:href="dc/d53/class_translator_lithuanian.html" target="_top" xlink:title=" ">
<polygon fill="white" stroke="#666666" points="2485.5,-814 2369.5,-814 2369.5,-795 2485.5,-795 2485.5,-814"/>
<text text-anchor="middle" x="2427.5" y="-802" font-family="Helvetica,sans-Serif" font-size="10.00">TranslatorLithuanian</text>
</a>
</g>
</g>
<!-- Node13&#45;&gt;Node15 -->
<g id="edge396_Node000013_Node000015" class="edge">
<title/>
<path fill="none" stroke="#63b8ff" d="M2343.53,-795.22C2352.27,-796.2 2361.05,-797.18 2369.46,-798.12"/>
<polygon fill="#63b8ff" stroke="#63b8ff" points="2343.64,-791.71 2333.31,-794.08 2342.86,-798.67 2343.64,-791.71"/>
</g>
<!-- Node16 -->
<g id="Node000016" class="node">
<g id="a_Node000016"><a xlink:href="dd/d38/class_translator_norwegian.html" target="_top" xlink:title=" ">
<polygon fill="white" stroke="#666666" points="2486,-777 2369,-777 2369,-758 2486,-758 2486,-777"/>
<text text-anchor="middle" x="2427.5" y="-765" font-family="Helvetica,sans-Serif" font-size="10.00">TranslatorNorwegian</text>
</a>
</g>
</g>
<!-- Node13&#45;&gt;Node16 -->
<g id="edge397_Node000013_Node000016" class="edge">
<title/>
<path fill="none" stroke="#63b8ff" d="M2343.38,-777.31C2352,-776.29 2360.66,-775.27 2368.96,-774.29"/>
<polygon fill="#63b8ff" stroke="#63b8ff" points="2342.83,-773.85 2333.31,-778.5 2343.65,-780.8 2342.83,-773.85"/>
</g>
<!-- Node17 -->
<g id="Node000017" class="node">
<g id="a_Node000017"><a xlink:href="dd/d0b/class_translator_slovene.html" target="_top" xlink:title=" ">
<polygon fill="white" stroke="#666666" points="2479.5,-740 2375.5,-740 2375.5,-721 2479.5,-721 2479.5,-740"/>
<text text-anchor="middle" x="2427.5" y="-728" font-family="Helvetica,sans-Serif" font-size="10.00">TranslatorSlovene</text>
</a>
</g>
</g>
<!-- Node13&#45;&gt;Node17 -->
<g id="edge398_Node000013_Node000017" class="edge">
<title/>
<path fill="none" stroke="#63b8ff" d="M2317.12,-774.03C2322.54,-772.34 2327.92,-770.49 2333,-768.5 2349.85,-761.91 2352.35,-756.58 2369,-749.5 2377.13,-746.04 2386.11,-742.81 2394.51,-740.02"/>
<polygon fill="#63b8ff" stroke="#63b8ff" points="2315.98,-770.71 2307.38,-776.9 2317.96,-777.43 2315.98,-770.71"/>
</g>
<!-- Node55 -->
<g id="Node000055" class="node">
<g id="a_Node000055"><a xlink:href="d0/d16/class_translator_japanese_en.html" target="_top" xlink:title=" ">
<polygon fill="white" stroke="#666666" points="393,-75 272,-75 272,-56 393,-56 393,-75"/>
<text text-anchor="middle" x="332.5" y="-63" font-family="Helvetica,sans-Serif" font-size="10.00">TranslatorJapaneseEn</text>
</a>
</g>
</g>
<!-- Node54&#45;&gt;Node55 -->
<g id="edge436_Node000054_Node000055" class="edge">
<title/>
<path fill="none" stroke="#63b8ff" d="M225.15,-53.33C240.31,-55.06 256.6,-56.93 271.77,-58.66"/>
<polygon fill="#63b8ff" stroke="#63b8ff" points="225.19,-49.81 214.86,-52.15 224.39,-56.76 225.19,-49.81"/>
</g>
<!-- Node56 -->
<g id="Node000056" class="node">
<g id="a_Node000056"><a xlink:href="d0/d3a/class_translator_korean_en.html" target="_top" xlink:title=" ">
<polygon fill="white" stroke="#666666" points="387.5,-38 277.5,-38 277.5,-19 387.5,-19 387.5,-38"/>
<text text-anchor="middle" x="332.5" y="-26" font-family="Helvetica,sans-Serif" font-size="10.00">TranslatorKoreanEn</text>
</a>
</g>
</g>
<!-- Node54&#45;&gt;Node56 -->
<g id="edge437_Node000054_Node000056" class="edge">
<title/>
<path fill="none" stroke="#63b8ff" d="M225.25,-40.02C242.28,-38.17 260.73,-36.17 277.41,-34.37"/>
<polygon fill="#63b8ff" stroke="#63b8ff" points="224.42,-36.59 214.86,-41.15 225.18,-43.55 224.42,-36.59"/>
</g>
</g>
</svg>
