<?xml version="1.0" encoding="UTF-8" standalone="no"?>
<!DOCTYPE svg PUBLIC "-//W3C//DTD SVG 1.1//EN"
 "http://www.w3.org/Graphics/SVG/1.1/DTD/svg11.dtd">
<!-- Generated by graphviz version 2.43.0 (0)
 -->
<!-- Title: Graphical Class Hierarchy Pages: 1 -->
<svg width="589pt" height="360pt"
 viewBox="0.00 0.00 589.00 360.00" xmlns="http://www.w3.org/2000/svg" xmlns:xlink="http://www.w3.org/1999/xlink">
<g id="graph0" class="graph" transform="scale(1 1) rotate(0) translate(4 356)">
<title>Graphical Class Hierarchy</title>
<!-- Node0 -->
<g id="node1" class="node">
<title>Node0</title>
<g id="a_node1"><a xlink:href="d5/d9c/class_code_output_interface.html" target="_top" xlink:title="Output interface for code parser.">
<polygon fill="white" stroke="#666666" points="118,-130 0,-130 0,-111 118,-111 118,-130"/>
<text text-anchor="middle" x="59" y="-118" font-family="Helvetica,sans-Serif" font-size="10.00">CodeOutputInterface</text>
</a>
</g>
</g>
<!-- Node1 -->
<g id="node2" class="node">
<title>Node1</title>
<g id="a_node2"><a xlink:href="df/d27/class_base_output_doc_interface.html" target="_top" xlink:title="Base Interface used for generating output outside of the comment blocks.">
<polygon fill="white" stroke="#666666" points="293.5,-241 157.5,-241 157.5,-222 293.5,-222 293.5,-241"/>
<text text-anchor="middle" x="225.5" y="-229" font-family="Helvetica,sans-Serif" font-size="10.00">BaseOutputDocInterface</text>
</a>
</g>
</g>
<!-- Node0&#45;&gt;Node1 -->
<g id="edge1" class="edge">
<title>Node0&#45;&gt;Node1</title>
<path fill="none" stroke="#63b8ff" d="M73.02,-138.19C89.51,-159.32 119.91,-194.21 154,-213.5 160.05,-216.92 166.75,-219.7 173.55,-221.96"/>
<polygon fill="#63b8ff" stroke="#63b8ff" points="75.67,-135.91 66.83,-130.07 70.1,-140.15 75.67,-135.91"/>
</g>
<!-- Node10 -->
<g id="node11" class="node">
<title>Node10</title>
<g id="a_node11"><a xlink:href="dd/d8a/class_dev_null_code_doc_interface.html" target="_top" xlink:title="Class implementing CodeOutputInterface by throwing away everything.">
<polygon fill="white" stroke="#666666" points="297,-204 154,-204 154,-185 297,-185 297,-204"/>
<text text-anchor="middle" x="225.5" y="-192" font-family="Helvetica,sans-Serif" font-size="10.00">DevNullCodeDocInterface</text>
</a>
</g>
</g>
<!-- Node0&#45;&gt;Node10 -->
<g id="edge10" class="edge">
<title>Node0&#45;&gt;Node10</title>
<path fill="none" stroke="#63b8ff" d="M81.64,-135.85C100.11,-148.33 127.77,-165.61 154,-176.5 161.93,-179.79 170.63,-182.61 179.12,-184.97"/>
<polygon fill="#63b8ff" stroke="#63b8ff" points="83.58,-132.94 73.36,-130.15 79.62,-138.7 83.58,-132.94"/>
</g>
<!-- Node11 -->
<g id="node12" class="node">
<title>Node11</title>
<g id="a_node12"><a xlink:href="d7/d80/class_docbook_code_generator.html" target="_top" xlink:title=" ">
<polygon fill="white" stroke="#666666" points="292,-167 159,-167 159,-148 292,-148 292,-167"/>
<text text-anchor="middle" x="225.5" y="-155" font-family="Helvetica,sans-Serif" font-size="10.00">DocbookCodeGenerator</text>
</a>
</g>
</g>
<!-- Node0&#45;&gt;Node11 -->
<g id="edge11" class="edge">
<title>Node0&#45;&gt;Node11</title>
<path fill="none" stroke="#63b8ff" d="M112.41,-132.29C134.87,-137.34 160.76,-143.16 182,-147.94"/>
<polygon fill="#63b8ff" stroke="#63b8ff" points="112.89,-128.81 102.36,-130.03 111.35,-135.64 112.89,-128.81"/>
</g>
<!-- Node12 -->
<g id="node13" class="node">
<title>Node12</title>
<g id="a_node13"><a xlink:href="da/db6/class_html_code_generator.html" target="_top" xlink:title=" ">
<polygon fill="white" stroke="#666666" points="282.5,-130 168.5,-130 168.5,-111 282.5,-111 282.5,-130"/>
<text text-anchor="middle" x="225.5" y="-118" font-family="Helvetica,sans-Serif" font-size="10.00">HtmlCodeGenerator</text>
</a>
</g>
</g>
<!-- Node0&#45;&gt;Node12 -->
<g id="edge12" class="edge">
<title>Node0&#45;&gt;Node12</title>
<path fill="none" stroke="#63b8ff" d="M128.51,-120.5C141.8,-120.5 155.6,-120.5 168.43,-120.5"/>
<polygon fill="#63b8ff" stroke="#63b8ff" points="128.46,-117 118.46,-120.5 128.46,-124 128.46,-117"/>
</g>
<!-- Node13 -->
<g id="node14" class="node">
<title>Node13</title>
<g id="a_node14"><a xlink:href="d0/d37/class_latex_code_generator.html" target="_top" xlink:title=" ">
<polygon fill="white" stroke="#666666" points="284,-93 167,-93 167,-74 284,-74 284,-93"/>
<text text-anchor="middle" x="225.5" y="-81" font-family="Helvetica,sans-Serif" font-size="10.00">LatexCodeGenerator</text>
</a>
</g>
</g>
<!-- Node0&#45;&gt;Node13 -->
<g id="edge13" class="edge">
<title>Node0&#45;&gt;Node13</title>
<path fill="none" stroke="#63b8ff" d="M112.41,-108.71C134.87,-103.66 160.76,-97.84 182,-93.06"/>
<polygon fill="#63b8ff" stroke="#63b8ff" points="111.35,-105.36 102.36,-110.97 112.89,-112.19 111.35,-105.36"/>
</g>
<!-- Node14 -->
<g id="node15" class="node">
<title>Node14</title>
<g id="a_node15"><a xlink:href="db/d39/class_validating_code_generator.html" target="_top" xlink:title=" ">
<polygon fill="white" stroke="#666666" points="295,-56 156,-56 156,-37 295,-37 295,-56"/>
<text text-anchor="middle" x="225.5" y="-44" font-family="Helvetica,sans-Serif" font-size="10.00">ValidatingCodeGenerator</text>
</a>
</g>
</g>
<!-- Node0&#45;&gt;Node14 -->
<g id="edge14" class="edge">
<title>Node0&#45;&gt;Node14</title>
<path fill="none" stroke="#63b8ff" d="M82.04,-105.33C100.55,-93.15 128.07,-76.35 154,-65.5 162.77,-61.83 172.45,-58.68 181.76,-56.06"/>
<polygon fill="#63b8ff" stroke="#63b8ff" points="80.09,-102.42 73.72,-110.89 83.98,-108.24 80.09,-102.42"/>
</g>
<!-- Node15 -->
<g id="node16" class="node">
<title>Node15</title>
<g id="a_node16"><a xlink:href="dd/d66/class_x_m_l_code_generator.html" target="_top" xlink:title=" ">
<polygon fill="white" stroke="#666666" points="281,-19 170,-19 170,0 281,0 281,-19"/>
<text text-anchor="middle" x="225.5" y="-7" font-family="Helvetica,sans-Serif" font-size="10.00">XMLCodeGenerator</text>
</a>
</g>
</g>
<!-- Node0&#45;&gt;Node15 -->
<g id="edge15" class="edge">
<title>Node0&#45;&gt;Node15</title>
<path fill="none" stroke="#63b8ff" d="M73.36,-102.75C89.99,-81.91 120.34,-47.72 154,-28.5 160.71,-24.66 168.23,-21.58 175.79,-19.1"/>
<polygon fill="#63b8ff" stroke="#63b8ff" points="70.48,-100.75 67.1,-110.79 76.01,-105.05 70.48,-100.75"/>
</g>
<!-- Node2 -->
<g id="node3" class="node">
<title>Node2</title>
<g id="a_node3"><a xlink:href="d3/d8e/class_output_generator.html" target="_top" xlink:title="Abstract output generator.">
<polygon fill="white" stroke="#666666" points="431,-259 333,-259 333,-240 431,-240 431,-259"/>
<text text-anchor="middle" x="382" y="-247" font-family="Helvetica,sans-Serif" font-size="10.00">OutputGenerator</text>
</a>
</g>
</g>
<!-- Node1&#45;&gt;Node2 -->
<g id="edge2" class="edge">
<title>Node1&#45;&gt;Node2</title>
<path fill="none" stroke="#63b8ff" d="M304.06,-240.54C313.91,-241.68 323.75,-242.83 332.95,-243.9"/>
<polygon fill="#63b8ff" stroke="#63b8ff" points="304.15,-237.02 293.82,-239.34 303.34,-243.98 304.15,-237.02"/>
</g>
<!-- Node9 -->
<g id="node10" class="node">
<title>Node9</title>
<g id="a_node10"><a xlink:href="df/dc8/class_output_list.html" target="_top" xlink:title="Class representing a list of output generators that are written to in parallel.">
<polygon fill="white" stroke="#666666" points="415.5,-222 348.5,-222 348.5,-203 415.5,-203 415.5,-222"/>
<text text-anchor="middle" x="382" y="-210" font-family="Helvetica,sans-Serif" font-size="10.00">OutputList</text>
</a>
</g>
</g>
<!-- Node1&#45;&gt;Node9 -->
<g id="edge9" class="edge">
<title>Node1&#45;&gt;Node9</title>
<path fill="none" stroke="#63b8ff" d="M304.04,-221.96C319.63,-220.05 335.2,-218.13 348.22,-216.53"/>
<polygon fill="#63b8ff" stroke="#63b8ff" points="303.31,-218.53 293.82,-223.22 304.17,-225.47 303.31,-218.53"/>
</g>
<!-- Node3 -->
<g id="node4" class="node">
<title>Node3</title>
<g id="a_node4"><a xlink:href="d1/d72/class_docbook_generator.html" target="_top" xlink:title=" ">
<polygon fill="white" stroke="#666666" points="578,-352 470,-352 470,-333 578,-333 578,-352"/>
<text text-anchor="middle" x="524" y="-340" font-family="Helvetica,sans-Serif" font-size="10.00">DocbookGenerator</text>
</a>
</g>
</g>
<!-- Node2&#45;&gt;Node3 -->
<g id="edge3" class="edge">
<title>Node2&#45;&gt;Node3</title>
<path fill="none" stroke="#63b8ff" d="M398.17,-266.72C413.88,-283.6 439.88,-308.97 467,-324.5 472.76,-327.8 479.21,-330.58 485.62,-332.9"/>
<polygon fill="#63b8ff" stroke="#63b8ff" points="400.65,-264.24 391.33,-259.2 395.47,-268.96 400.65,-264.24"/>
</g>
<!-- Node4 -->
<g id="node5" class="node">
<title>Node4</title>
<g id="a_node5"><a xlink:href="d7/d41/class_html_generator.html" target="_top" xlink:title="Generator for HTML output.">
<polygon fill="white" stroke="#666666" points="568.5,-315 479.5,-315 479.5,-296 568.5,-296 568.5,-315"/>
<text text-anchor="middle" x="524" y="-303" font-family="Helvetica,sans-Serif" font-size="10.00">HtmlGenerator</text>
</a>
</g>
</g>
<!-- Node2&#45;&gt;Node4 -->
<g id="edge4" class="edge">
<title>Node2&#45;&gt;Node4</title>
<path fill="none" stroke="#63b8ff" d="M411.79,-263.51C427.85,-271.07 448.32,-280.3 467,-287.5 474.72,-290.48 483.16,-293.37 491.09,-295.94"/>
<polygon fill="#63b8ff" stroke="#63b8ff" points="412.95,-260.18 402.42,-259.05 409.95,-266.5 412.95,-260.18"/>
</g>
<!-- Node5 -->
<g id="node6" class="node">
<title>Node5</title>
<g id="a_node6"><a xlink:href="d3/d77/class_latex_generator.html" target="_top" xlink:title="Generator for LaTeX output.">
<polygon fill="white" stroke="#666666" points="570,-278 478,-278 478,-259 570,-259 570,-278"/>
<text text-anchor="middle" x="524" y="-266" font-family="Helvetica,sans-Serif" font-size="10.00">LatexGenerator</text>
</a>
</g>
</g>
<!-- Node2&#45;&gt;Node5 -->
<g id="edge5" class="edge">
<title>Node2&#45;&gt;Node5</title>
<path fill="none" stroke="#63b8ff" d="M441.22,-257.4C453.35,-259.05 465.97,-260.76 477.56,-262.33"/>
<polygon fill="#63b8ff" stroke="#63b8ff" points="441.56,-253.92 431.18,-256.04 440.62,-260.85 441.56,-253.92"/>
</g>
<!-- Node6 -->
<g id="node7" class="node">
<title>Node6</title>
<g id="a_node7"><a xlink:href="de/da5/class_man_generator.html" target="_top" xlink:title="Generator for Man page output.">
<polygon fill="white" stroke="#666666" points="567,-241 481,-241 481,-222 567,-222 567,-241"/>
<text text-anchor="middle" x="524" y="-229" font-family="Helvetica,sans-Serif" font-size="10.00">ManGenerator</text>
</a>
</g>
</g>
<!-- Node2&#45;&gt;Node6 -->
<g id="edge6" class="edge">
<title>Node2&#45;&gt;Node6</title>
<path fill="none" stroke="#63b8ff" d="M441.19,-242.02C454.48,-240.31 468.35,-238.53 480.81,-236.92"/>
<polygon fill="#63b8ff" stroke="#63b8ff" points="440.65,-238.56 431.18,-243.31 441.54,-245.5 440.65,-238.56"/>
</g>
<!-- Node7 -->
<g id="node8" class="node">
<title>Node7</title>
<g id="a_node8"><a xlink:href="d0/da4/class_r_t_f_generator.html" target="_top" xlink:title="Generator for RTF output.">
<polygon fill="white" stroke="#666666" points="565.5,-204 482.5,-204 482.5,-185 565.5,-185 565.5,-204"/>
<text text-anchor="middle" x="524" y="-192" font-family="Helvetica,sans-Serif" font-size="10.00">RTFGenerator</text>
</a>
</g>
</g>
<!-- Node2&#45;&gt;Node7 -->
<g id="edge7" class="edge">
<title>Node2&#45;&gt;Node7</title>
<path fill="none" stroke="#63b8ff" d="M419.49,-236.28C423.4,-234.72 427.3,-233.11 431,-231.5 447.4,-224.35 450.49,-220.39 467,-213.5 475.15,-210.1 484.14,-206.84 492.49,-204.01"/>
<polygon fill="#63b8ff" stroke="#63b8ff" points="417.93,-233.13 409.86,-239.99 420.45,-239.66 417.93,-233.13"/>
</g>
<!-- Node8 -->
<g id="node9" class="node">
<title>Node8</title>
<g id="a_node9"><a xlink:href="d7/dcf/class_validating_generator.html" target="_top" xlink:title="Generator so the tests will be executed.">
<polygon fill="white" stroke="#666666" points="581,-167 467,-167 467,-148 581,-148 581,-167"/>
<text text-anchor="middle" x="524" y="-155" font-family="Helvetica,sans-Serif" font-size="10.00">ValidatingGenerator</text>
</a>
</g>
</g>
<!-- Node2&#45;&gt;Node8 -->
<g id="edge8" class="edge">
<title>Node2&#45;&gt;Node8</title>
<path fill="none" stroke="#63b8ff" d="M426.05,-235.02C427.78,-233.92 429.44,-232.75 431,-231.5 453.81,-213.24 443.91,-194.39 467,-176.5 471.95,-172.66 477.72,-169.58 483.64,-167.1"/>
<polygon fill="#63b8ff" stroke="#63b8ff" points="424.15,-232.06 416.99,-239.87 427.46,-238.23 424.15,-232.06"/>
</g>
</g>
</svg>
