<?xml version="1.0" encoding="UTF-8" standalone="no"?>
<!DOCTYPE svg PUBLIC "-//W3C//DTD SVG 1.1//EN"
 "http://www.w3.org/Graphics/SVG/1.1/DTD/svg11.dtd">
<!-- Generated by graphviz version 2.43.0 (0)
 -->
<!-- Title: OutputGenerator Pages: 1 -->
<svg width="582pt" height="212pt"
 viewBox="0.00 0.00 582.00 212.00" xmlns="http://www.w3.org/2000/svg" xmlns:xlink="http://www.w3.org/1999/xlink">
<g id="graph0" class="graph" transform="scale(1 1) rotate(0) translate(4 208)">
<title>OutputGenerator</title>
<!-- Node1 -->
<g id="node1" class="node">
<title>Node1</title>
<g id="a_node1"><a xlink:title="Abstract output generator.">
<polygon fill="#999999" stroke="#666666" points="424,-111 326,-111 326,-92 424,-92 424,-111"/>
<text text-anchor="middle" x="375" y="-99" font-family="Helvetica,sans-Serif" font-size="10.00">OutputGenerator</text>
</a>
</g>
</g>
<!-- Node4 -->
<g id="node4" class="node">
<title>Node4</title>
<g id="a_node4"><a xlink:href="../../d1/d72/class_docbook_generator.html" target="_top" xlink:title=" ">
<polygon fill="white" stroke="#666666" points="571,-204 463,-204 463,-185 571,-185 571,-204"/>
<text text-anchor="middle" x="517" y="-192" font-family="Helvetica,sans-Serif" font-size="10.00">DocbookGenerator</text>
</a>
</g>
</g>
<!-- Node1&#45;&gt;Node4 -->
<g id="edge3" class="edge">
<title>Node1&#45;&gt;Node4</title>
<path fill="none" stroke="#63b8ff" d="M391.17,-118.72C406.88,-135.6 432.88,-160.97 460,-176.5 465.76,-179.8 472.21,-182.58 478.62,-184.9"/>
<polygon fill="#63b8ff" stroke="#63b8ff" points="393.65,-116.24 384.33,-111.2 388.47,-120.96 393.65,-116.24"/>
</g>
<!-- Node5 -->
<g id="node5" class="node">
<title>Node5</title>
<g id="a_node5"><a xlink:href="../../d7/d41/class_html_generator.html" target="_top" xlink:title="Generator for HTML output.">
<polygon fill="white" stroke="#666666" points="561.5,-167 472.5,-167 472.5,-148 561.5,-148 561.5,-167"/>
<text text-anchor="middle" x="517" y="-155" font-family="Helvetica,sans-Serif" font-size="10.00">HtmlGenerator</text>
</a>
</g>
</g>
<!-- Node1&#45;&gt;Node5 -->
<g id="edge4" class="edge">
<title>Node1&#45;&gt;Node5</title>
<path fill="none" stroke="#63b8ff" d="M404.79,-115.51C420.85,-123.07 441.32,-132.3 460,-139.5 467.72,-142.48 476.16,-145.37 484.09,-147.94"/>
<polygon fill="#63b8ff" stroke="#63b8ff" points="405.95,-112.18 395.42,-111.05 402.95,-118.5 405.95,-112.18"/>
</g>
<!-- Node6 -->
<g id="node6" class="node">
<title>Node6</title>
<g id="a_node6"><a xlink:href="../../d3/d77/class_latex_generator.html" target="_top" xlink:title="Generator for LaTeX output.">
<polygon fill="white" stroke="#666666" points="563,-130 471,-130 471,-111 563,-111 563,-130"/>
<text text-anchor="middle" x="517" y="-118" font-family="Helvetica,sans-Serif" font-size="10.00">LatexGenerator</text>
</a>
</g>
</g>
<!-- Node1&#45;&gt;Node6 -->
<g id="edge5" class="edge">
<title>Node1&#45;&gt;Node6</title>
<path fill="none" stroke="#63b8ff" d="M434.22,-109.4C446.35,-111.05 458.97,-112.76 470.56,-114.33"/>
<polygon fill="#63b8ff" stroke="#63b8ff" points="434.56,-105.92 424.18,-108.04 433.62,-112.85 434.56,-105.92"/>
</g>
<!-- Node7 -->
<g id="node7" class="node">
<title>Node7</title>
<g id="a_node7"><a xlink:href="../../de/da5/class_man_generator.html" target="_top" xlink:title="Generator for Man page output.">
<polygon fill="white" stroke="#666666" points="560,-93 474,-93 474,-74 560,-74 560,-93"/>
<text text-anchor="middle" x="517" y="-81" font-family="Helvetica,sans-Serif" font-size="10.00">ManGenerator</text>
</a>
</g>
</g>
<!-- Node1&#45;&gt;Node7 -->
<g id="edge6" class="edge">
<title>Node1&#45;&gt;Node7</title>
<path fill="none" stroke="#63b8ff" d="M434.19,-94.02C447.48,-92.31 461.35,-90.53 473.81,-88.92"/>
<polygon fill="#63b8ff" stroke="#63b8ff" points="433.65,-90.56 424.18,-95.31 434.54,-97.5 433.65,-90.56"/>
</g>
<!-- Node8 -->
<g id="node8" class="node">
<title>Node8</title>
<g id="a_node8"><a xlink:href="../../d0/da4/class_r_t_f_generator.html" target="_top" xlink:title="Generator for RTF output.">
<polygon fill="white" stroke="#666666" points="558.5,-56 475.5,-56 475.5,-37 558.5,-37 558.5,-56"/>
<text text-anchor="middle" x="517" y="-44" font-family="Helvetica,sans-Serif" font-size="10.00">RTFGenerator</text>
</a>
</g>
</g>
<!-- Node1&#45;&gt;Node8 -->
<g id="edge7" class="edge">
<title>Node1&#45;&gt;Node8</title>
<path fill="none" stroke="#63b8ff" d="M405.47,-87.62C421.44,-80.33 441.62,-71.48 460,-64.5 467.83,-61.53 476.39,-58.61 484.41,-56.02"/>
<polygon fill="#63b8ff" stroke="#63b8ff" points="403.74,-84.56 396.12,-91.93 406.67,-90.92 403.74,-84.56"/>
</g>
<!-- Node9 -->
<g id="node9" class="node">
<title>Node9</title>
<g id="a_node9"><a xlink:href="../../d7/dcf/class_validating_generator.html" target="_top" xlink:title="Generator so the tests will be executed.">
<polygon fill="white" stroke="#666666" points="574,-19 460,-19 460,0 574,0 574,-19"/>
<text text-anchor="middle" x="517" y="-7" font-family="Helvetica,sans-Serif" font-size="10.00">ValidatingGenerator</text>
</a>
</g>
</g>
<!-- Node1&#45;&gt;Node9 -->
<g id="edge8" class="edge">
<title>Node1&#45;&gt;Node9</title>
<path fill="none" stroke="#63b8ff" d="M391.22,-84.52C406.96,-67.88 432.99,-42.84 460,-27.5 465.86,-24.17 472.42,-21.36 478.93,-19.03"/>
<polygon fill="#63b8ff" stroke="#63b8ff" points="388.58,-82.22 384.36,-91.93 393.72,-86.97 388.58,-82.22"/>
</g>
<!-- Node2 -->
<g id="node2" class="node">
<title>Node2</title>
<g id="a_node2"><a xlink:href="../../df/d27/class_base_output_doc_interface.html" target="_top" xlink:title="Base Interface used for generating output outside of the comment blocks.">
<polygon fill="white" stroke="#666666" points="290,-111 154,-111 154,-92 290,-92 290,-111"/>
<text text-anchor="middle" x="222" y="-99" font-family="Helvetica,sans-Serif" font-size="10.00">BaseOutputDocInterface</text>
</a>
</g>
</g>
<!-- Node2&#45;&gt;Node1 -->
<g id="edge1" class="edge">
<title>Node2&#45;&gt;Node1</title>
<path fill="none" stroke="#63b8ff" d="M300.25,-101.5C308.9,-101.5 317.52,-101.5 325.66,-101.5"/>
<polygon fill="#63b8ff" stroke="#63b8ff" points="300.11,-98 290.11,-101.5 300.11,-105 300.11,-98"/>
</g>
<!-- Node3 -->
<g id="node3" class="node">
<title>Node3</title>
<g id="a_node3"><a xlink:href="../../d5/d9c/class_code_output_interface.html" target="_top" xlink:title="Output interface for code parser.">
<polygon fill="white" stroke="#666666" points="118,-111 0,-111 0,-92 118,-92 118,-111"/>
<text text-anchor="middle" x="59" y="-99" font-family="Helvetica,sans-Serif" font-size="10.00">CodeOutputInterface</text>
</a>
</g>
</g>
<!-- Node3&#45;&gt;Node2 -->
<g id="edge2" class="edge">
<title>Node3&#45;&gt;Node2</title>
<path fill="none" stroke="#63b8ff" d="M128.34,-101.5C136.82,-101.5 145.48,-101.5 153.93,-101.5"/>
<polygon fill="#63b8ff" stroke="#63b8ff" points="128.12,-98 118.12,-101.5 128.12,-105 128.12,-98"/>
</g>
</g>
</svg>
