<?xml version="1.0" encoding="UTF-8" standalone="no"?>
<!DOCTYPE svg PUBLIC "-//W3C//DTD SVG 1.1//EN"
 "http://www.w3.org/Graphics/SVG/1.1/DTD/svg11.dtd">
<!-- Generated by graphviz version 2.40.1 (20161225.0304)
 -->
<!-- Title: ConfigImpl Pages: 1 -->
<svg width="144pt" height="126pt"
 viewBox="0.00 0.00 144.00 126.00" xmlns="http://www.w3.org/2000/svg" xmlns:xlink="http://www.w3.org/1999/xlink">
<g id="graph0" class="graph" transform="scale(1 1) rotate(0) translate(4 122)">
<title>ConfigImpl</title>
<!-- Node1 -->
<g id="node1" class="node">
<title>Node1</title>
<g id="a_node1"><a xlink:title="Singleton for configuration variables.">
<polygon fill="#999999" stroke="#666666" points="64,-19 0,-19 0,0 64,0 64,-19"/>
<text text-anchor="middle" x="32" y="-7" font-family="Helvetica,sans-Serif" font-size="10.00" fill="#000000">ConfigImpl</text>
</a>
</g>
</g>
<!-- Node1&#45;&gt;Node1 -->
<g id="edge1" class="edge">
<title>Node1&#45;&gt;Node1</title>
<path fill="none" stroke="#9a32cd" stroke-dasharray="5,2" d="M74.2224,-17.0991C78.9451,-15.6658 82,-13.1328 82,-9.5 82,-3.6875 74.1794,-.6904 64.2203,-.5088"/>
<polygon fill="#9a32cd" stroke="#9a32cd" points="73.6423,-13.646 64.2203,-18.4912 74.6073,-20.5792 73.6423,-13.646"/>
<text text-anchor="middle" x="109" y="-7" font-family="Helvetica,sans-Serif" font-size="10.00" fill="#000000"> m_instance</text>
</g>
<!-- Node2 -->
<g id="node2" class="node">
<title>Node2</title>
<g id="a_node2"><a xlink:href="../../d9/d45/class_q_c_string.html" target="_top" xlink:title="This is an alternative implementation of QCString.">
<polygon fill="#ffffff" stroke="#666666" points="60.5,-118 3.5,-118 3.5,-99 60.5,-99 60.5,-118"/>
<text text-anchor="middle" x="32" y="-106" font-family="Helvetica,sans-Serif" font-size="10.00" fill="#000000">QCString</text>
</a>
</g>
</g>
<!-- Node2&#45;&gt;Node1 -->
<g id="edge2" class="edge">
<title>Node2&#45;&gt;Node1</title>
<path fill="none" stroke="#9a32cd" stroke-dasharray="5,2" d="M32,-88.5112C32,-67.3861 32,-34.9666 32,-19.0234"/>
<polygon fill="#9a32cd" stroke="#9a32cd" points="28.5001,-88.6455 32,-98.6456 35.5001,-88.6456 28.5001,-88.6455"/>
<text text-anchor="middle" x="70" y="-73" font-family="Helvetica,sans-Serif" font-size="10.00" fill="#000000"> m_header</text>
<text text-anchor="middle" x="70" y="-62" font-family="Helvetica,sans-Serif" font-size="10.00" fill="#000000">m_startComment</text>
<text text-anchor="middle" x="70" y="-51" font-family="Helvetica,sans-Serif" font-size="10.00" fill="#000000">m_storeRepl</text>
<text text-anchor="middle" x="70" y="-40" font-family="Helvetica,sans-Serif" font-size="10.00" fill="#000000">m_userComment</text>
</g>
</g>
</svg>
