<?xml version="1.0" encoding="UTF-8" standalone="no"?>
<!DOCTYPE svg PUBLIC "-//W3C//DTD SVG 1.1//EN"
 "http://www.w3.org/Graphics/SVG/1.1/DTD/svg11.dtd">
<!-- Generated by graphviz version 2.43.0 (0)
 -->
<!-- Title: /home/runner/work/doxygen/doxygen/src/growbuf.h Pages: 1 -->
<!--zoomable 236 -->
<svg id="main" version="1.1" xmlns="http://www.w3.org/2000/svg" xmlns:xlink="http://www.w3.org/1999/xlink" xml:space="preserve" onload="init(evt)">
<style type="text/css"><![CDATA[
.edge:hover path { stroke: red; }
.edge:hover polygon { stroke: red; fill: red; }
]]></style>
<script type="text/javascript"><![CDATA[
var edges = document.getElementsByTagName('g');
if (edges && edges.length) {
  for (var i=0;i<edges.length;i++) {
    if (edges[i].id.substr(0,4)=='edge') {
      edges[i].setAttribute('class','edge');
    }
  }
}
]]></script>
        <defs>
                <circle id="rim" cx="0" cy="0" r="7"/>
                <circle id="rim2" cx="0" cy="0" r="3.5"/>
                <g id="zoomPlus">
                        <use xlink:href="#rim" fill="#404040">
                                <set attributeName="fill" to="#808080" begin="zoomplus.mouseover" end="zoomplus.mouseout"/>
                        </use>
                        <path d="M-4,0h8M0,-4v8" fill="none" stroke="white" stroke-width="1.5" pointer-events="none"/>
                </g>
                <g id="zoomMin">
                        <use xlink:href="#rim" fill="#404040">
                                <set attributeName="fill" to="#808080" begin="zoomminus.mouseover" end="zoomminus.mouseout"/>
                        </use>
                        <path d="M-4,0h8" fill="none" stroke="white" stroke-width="1.5" pointer-events="none"/>
                </g>
                <g id="dirArrow">
                        <path fill="none" stroke="white" stroke-width="1.5" d="M0,-3.0v7 M-2.5,-0.5L0,-3.0L2.5,-0.5"/>
                </g>
               <g id="resetDef">
                       <use xlink:href="#rim2" fill="#404040">
                               <set attributeName="fill" to="#808080" begin="reset.mouseover" end="reset.mouseout"/>
                       </use>
               </g>
        </defs>

<script type="text/javascript">
var viewWidth = 4572;
var viewHeight = 236;
var sectionId = 'dynsection-1';
</script>
<script xlink:href="../../svgpan.js"/>
<svg id="graph" class="graph">
<g id="viewport">
<title>/home/runner/work/doxygen/doxygen/src/growbuf.h</title>
<!-- Node1 -->
<g id="node1" class="node">
<title>Node1</title>
<g id="a_node1"><a xlink:title=" ">
<polygon fill="#999999" stroke="#666666" points="1044,-228 890,-228 890,-198 1044,-198 1044,-228"/>
<text text-anchor="start" x="898" y="-216" font-family="Helvetica,sans-Serif" font-size="10.00">/home/runner/work/doxygen</text>
<text text-anchor="middle" x="967" y="-205" font-family="Helvetica,sans-Serif" font-size="10.00">/doxygen/src/growbuf.h</text>
</a>
</g>
</g>
<!-- Node2 -->
<g id="node2" class="node">
<title>Node2</title>
<g id="a_node2"><a xlink:href="../../d7/d14/datetime_8cpp.html" target="_top" xlink:title=" ">
<polygon fill="white" stroke="#666666" points="154,-162 0,-162 0,-132 154,-132 154,-162"/>
<text text-anchor="start" x="8" y="-150" font-family="Helvetica,sans-Serif" font-size="10.00">/home/runner/work/doxygen</text>
<text text-anchor="middle" x="77" y="-139" font-family="Helvetica,sans-Serif" font-size="10.00">/doxygen/src/datetime.cpp</text>
</a>
</g>
</g>
<!-- Node1&#45;&gt;Node2 -->
<g id="edge1" class="edge">
<title>Node1&#45;&gt;Node2</title>
<path fill="none" stroke="#63b8ff" d="M879.35,-209.4C731.33,-204.37 422.57,-191.13 163,-162 160.14,-161.68 157.24,-161.33 154.31,-160.96"/>
<polygon fill="#63b8ff" stroke="#63b8ff" points="879.62,-212.91 889.73,-209.75 879.85,-205.91 879.62,-212.91"/>
</g>
<!-- Node3 -->
<g id="node3" class="node">
<title>Node3</title>
<g id="a_node3"><a xlink:href="../../da/d0d/diagram_8cpp.html" target="_top" xlink:title=" ">
<polygon fill="white" stroke="#666666" points="326,-162 172,-162 172,-132 326,-132 326,-162"/>
<text text-anchor="start" x="180" y="-150" font-family="Helvetica,sans-Serif" font-size="10.00">/home/runner/work/doxygen</text>
<text text-anchor="middle" x="249" y="-139" font-family="Helvetica,sans-Serif" font-size="10.00">/doxygen/src/diagram.cpp</text>
</a>
</g>
</g>
<!-- Node1&#45;&gt;Node3 -->
<g id="edge2" class="edge">
<title>Node1&#45;&gt;Node3</title>
<path fill="none" stroke="#63b8ff" d="M879.9,-207.39C757.81,-200.4 528.97,-185.42 335,-162 332.15,-161.66 329.24,-161.28 326.31,-160.89"/>
<polygon fill="#63b8ff" stroke="#63b8ff" points="879.76,-210.88 889.94,-207.96 880.15,-203.9 879.76,-210.88"/>
</g>
<!-- Node4 -->
<g id="node4" class="node">
<title>Node4</title>
<g id="a_node4"><a xlink:href="../../d8/d29/docbookgen_8cpp.html" target="_top" xlink:title=" ">
<polygon fill="white" stroke="#666666" points="505.5,-162 344.5,-162 344.5,-132 505.5,-132 505.5,-162"/>
<text text-anchor="start" x="352.5" y="-150" font-family="Helvetica,sans-Serif" font-size="10.00">/home/runner/work/doxygen</text>
<text text-anchor="middle" x="425" y="-139" font-family="Helvetica,sans-Serif" font-size="10.00">/doxygen/src/docbookgen.cpp</text>
</a>
</g>
</g>
<!-- Node1&#45;&gt;Node4 -->
<g id="edge3" class="edge">
<title>Node1&#45;&gt;Node4</title>
<path fill="none" stroke="#63b8ff" d="M879.89,-203.59C788.58,-194.49 640.99,-178.99 514,-162 511.21,-161.63 508.37,-161.24 505.51,-160.83"/>
<polygon fill="#63b8ff" stroke="#63b8ff" points="879.62,-207.08 889.92,-204.58 880.32,-200.11 879.62,-207.08"/>
</g>
<!-- Node5 -->
<g id="node5" class="node">
<title>Node5</title>
<g id="a_node5"><a xlink:href="../../dc/d05/docbookvisitor_8cpp.html" target="_top" xlink:title=" ">
<polygon fill="white" stroke="#666666" points="696.5,-162 523.5,-162 523.5,-132 696.5,-132 696.5,-162"/>
<text text-anchor="start" x="531.5" y="-150" font-family="Helvetica,sans-Serif" font-size="10.00">/home/runner/work/doxygen</text>
<text text-anchor="middle" x="610" y="-139" font-family="Helvetica,sans-Serif" font-size="10.00">/doxygen/src/docbookvisitor.cpp</text>
</a>
</g>
</g>
<!-- Node1&#45;&gt;Node5 -->
<g id="edge4" class="edge">
<title>Node1&#45;&gt;Node5</title>
<path fill="none" stroke="#63b8ff" d="M879.99,-196.4C821.39,-185.9 744.76,-172.16 688.12,-162"/>
<polygon fill="#63b8ff" stroke="#63b8ff" points="879.52,-199.87 889.98,-198.19 880.75,-192.98 879.52,-199.87"/>
</g>
<!-- Node6 -->
<g id="node6" class="node">
<title>Node6</title>
<g id="a_node6"><a xlink:href="../../da/db0/htmldocvisitor_8cpp.html" target="_top" xlink:title=" ">
<polygon fill="white" stroke="#666666" points="887,-162 715,-162 715,-132 887,-132 887,-162"/>
<text text-anchor="start" x="723" y="-150" font-family="Helvetica,sans-Serif" font-size="10.00">/home/runner/work/doxygen</text>
<text text-anchor="middle" x="801" y="-139" font-family="Helvetica,sans-Serif" font-size="10.00">/doxygen/src/htmldocvisitor.cpp</text>
</a>
</g>
</g>
<!-- Node1&#45;&gt;Node6 -->
<g id="edge5" class="edge">
<title>Node1&#45;&gt;Node6</title>
<path fill="none" stroke="#63b8ff" d="M921.15,-194.32C894.73,-184.14 861.98,-171.51 837.34,-162.01"/>
<polygon fill="#63b8ff" stroke="#63b8ff" points="919.98,-197.62 930.57,-197.95 922.5,-191.09 919.98,-197.62"/>
</g>
<!-- Node7 -->
<g id="node7" class="node">
<title>Node7</title>
<g id="a_node7"><a xlink:href="../../d8/d6e/htmlgen_8cpp.html" target="_top" xlink:title=" ">
<polygon fill="white" stroke="#666666" points="1602,-96 1448,-96 1448,-66 1602,-66 1602,-96"/>
<text text-anchor="start" x="1456" y="-84" font-family="Helvetica,sans-Serif" font-size="10.00">/home/runner/work/doxygen</text>
<text text-anchor="middle" x="1525" y="-73" font-family="Helvetica,sans-Serif" font-size="10.00">/doxygen/src/htmlgen.cpp</text>
</a>
</g>
</g>
<!-- Node1&#45;&gt;Node7 -->
<g id="edge6" class="edge">
<title>Node1&#45;&gt;Node7</title>
<path fill="none" stroke="#63b8ff" d="M1041.57,-195.76C1085.42,-186.13 1141.91,-173.58 1192,-162 1289.03,-139.57 1401.65,-112.24 1467.91,-96.03"/>
<polygon fill="#63b8ff" stroke="#63b8ff" points="1040.58,-192.4 1031.56,-197.96 1042.08,-199.24 1040.58,-192.4"/>
</g>
<!-- Node8 -->
<g id="node8" class="node">
<title>Node8</title>
<g id="a_node8"><a xlink:href="../../de/d04/markdown_8cpp.html" target="_top" xlink:title=" ">
<polygon fill="white" stroke="#666666" points="350,-96 196,-96 196,-66 350,-66 350,-96"/>
<text text-anchor="start" x="204" y="-84" font-family="Helvetica,sans-Serif" font-size="10.00">/home/runner/work/doxygen</text>
<text text-anchor="middle" x="273" y="-73" font-family="Helvetica,sans-Serif" font-size="10.00">/doxygen/src/markdown.cpp</text>
</a>
</g>
</g>
<!-- Node1&#45;&gt;Node8 -->
<g id="edge7" class="edge">
<title>Node1&#45;&gt;Node8</title>
<path fill="none" stroke="#63b8ff" d="M953.94,-189.31C941.65,-170.34 921.36,-144.44 896,-132 788.62,-79.34 477.82,-109.62 359,-96 356.14,-95.67 353.24,-95.32 350.31,-94.94"/>
<polygon fill="#63b8ff" stroke="#63b8ff" points="951.07,-191.33 959.32,-197.98 957.02,-187.64 951.07,-191.33"/>
</g>
<!-- Node9 -->
<g id="node9" class="node">
<title>Node9</title>
<g id="a_node9"><a xlink:href="../../d2/d0c/markdown_8h.html" target="_top" xlink:title=" ">
<polygon fill="white" stroke="#666666" points="1097,-162 943,-162 943,-132 1097,-132 1097,-162"/>
<text text-anchor="start" x="951" y="-150" font-family="Helvetica,sans-Serif" font-size="10.00">/home/runner/work/doxygen</text>
<text text-anchor="middle" x="1020" y="-139" font-family="Helvetica,sans-Serif" font-size="10.00">/doxygen/src/markdown.h</text>
</a>
</g>
</g>
<!-- Node1&#45;&gt;Node9 -->
<g id="edge8" class="edge">
<title>Node1&#45;&gt;Node9</title>
<path fill="none" stroke="#63b8ff" d="M985.15,-190.09C992.8,-180.85 1001.48,-170.36 1008.27,-162.16"/>
<polygon fill="#63b8ff" stroke="#63b8ff" points="982.44,-187.86 978.76,-197.8 987.84,-192.33 982.44,-187.86"/>
</g>
<!-- Node15 -->
<g id="node15" class="node">
<title>Node15</title>
<g id="a_node15"><a xlink:href="../../df/d2d/util_8cpp.html" target="_top" xlink:title=" ">
<polygon fill="white" stroke="#666666" points="1252,-96 1098,-96 1098,-66 1252,-66 1252,-96"/>
<text text-anchor="start" x="1106" y="-84" font-family="Helvetica,sans-Serif" font-size="10.00">/home/runner/work/doxygen</text>
<text text-anchor="middle" x="1175" y="-73" font-family="Helvetica,sans-Serif" font-size="10.00">/doxygen/src/util.cpp</text>
</a>
</g>
</g>
<!-- Node1&#45;&gt;Node15 -->
<g id="edge42" class="edge">
<title>Node1&#45;&gt;Node15</title>
<path fill="none" stroke="#63b8ff" d="M1035.88,-194.95C1059.39,-187.19 1085.01,-176.43 1106,-162 1132.15,-144.03 1154.47,-113.81 1166.19,-96.11"/>
<polygon fill="#63b8ff" stroke="#63b8ff" points="1034.78,-191.63 1026.31,-197.99 1036.9,-198.3 1034.78,-191.63"/>
</g>
<!-- Node16 -->
<g id="node16" class="node">
<title>Node16</title>
<g id="a_node16"><a xlink:href="../../d1/d86/vhdljjparser_8cpp.html" target="_top" xlink:title=" ">
<polygon fill="white" stroke="#666666" points="1429.5,-96 1270.5,-96 1270.5,-66 1429.5,-66 1429.5,-96"/>
<text text-anchor="start" x="1278.5" y="-84" font-family="Helvetica,sans-Serif" font-size="10.00">/home/runner/work/doxygen</text>
<text text-anchor="middle" x="1350" y="-73" font-family="Helvetica,sans-Serif" font-size="10.00">/doxygen/src/vhdljjparser.cpp</text>
</a>
</g>
</g>
<!-- Node1&#45;&gt;Node16 -->
<g id="edge43" class="edge">
<title>Node1&#45;&gt;Node16</title>
<path fill="none" stroke="#63b8ff" d="M1027.71,-195.15C1060.03,-185.9 1100.37,-173.92 1136,-162 1199.57,-140.74 1272.47,-112.69 1314.68,-96.07"/>
<polygon fill="#63b8ff" stroke="#63b8ff" points="1026.61,-191.83 1017.95,-197.93 1028.52,-198.56 1026.61,-191.83"/>
</g>
<!-- Node17 -->
<g id="node17" class="node">
<title>Node17</title>
<g id="a_node17"><a xlink:href="../../d7/d79/searchindex_8cpp.html" target="_top" xlink:title=" ">
<polygon fill="white" stroke="#666666" points="1781.5,-96 1620.5,-96 1620.5,-66 1781.5,-66 1781.5,-96"/>
<text text-anchor="start" x="1628.5" y="-84" font-family="Helvetica,sans-Serif" font-size="10.00">/home/runner/work/doxygen</text>
<text text-anchor="middle" x="1701" y="-73" font-family="Helvetica,sans-Serif" font-size="10.00">/doxygen/src/searchindex.cpp</text>
</a>
</g>
</g>
<!-- Node1&#45;&gt;Node17 -->
<g id="edge17" class="edge">
<title>Node1&#45;&gt;Node17</title>
<path fill="none" stroke="#63b8ff" d="M1054.32,-197.78C1113.98,-187.97 1194.82,-174.5 1266,-162 1392.87,-139.73 1540.25,-112.29 1626.79,-96.03"/>
<polygon fill="#63b8ff" stroke="#63b8ff" points="1053.49,-194.37 1044.19,-199.44 1054.62,-201.28 1053.49,-194.37"/>
</g>
<!-- Node18 -->
<g id="node18" class="node">
<title>Node18</title>
<g id="a_node18"><a xlink:href="../../de/d07/searchindex_8h.html" target="_top" xlink:title="Web server based search engine.">
<polygon fill="white" stroke="#666666" points="2732,-162 2578,-162 2578,-132 2732,-132 2732,-162"/>
<text text-anchor="start" x="2586" y="-150" font-family="Helvetica,sans-Serif" font-size="10.00">/home/runner/work/doxygen</text>
<text text-anchor="middle" x="2655" y="-139" font-family="Helvetica,sans-Serif" font-size="10.00">/doxygen/src/searchindex.h</text>
</a>
</g>
</g>
<!-- Node1&#45;&gt;Node18 -->
<g id="edge18" class="edge">
<title>Node1&#45;&gt;Node18</title>
<path fill="none" stroke="#63b8ff" d="M1054.37,-208.69C1348.42,-197.54 2299.18,-161.49 2577.67,-150.93"/>
<polygon fill="#63b8ff" stroke="#63b8ff" points="1054.05,-205.2 1044.19,-209.07 1054.32,-212.19 1054.05,-205.2"/>
</g>
<!-- Node9&#45;&gt;Node8 -->
<g id="edge12" class="edge">
<title>Node9&#45;&gt;Node8</title>
<path fill="none" stroke="#63b8ff" d="M932.36,-132.37C931.23,-132.24 930.11,-132.12 929,-132 676.64,-104.67 611.24,-124.43 359,-96 356.14,-95.68 353.24,-95.33 350.31,-94.95"/>
<polygon fill="#63b8ff" stroke="#63b8ff" points="932.27,-135.89 942.62,-133.61 933.11,-128.94 932.27,-135.89"/>
</g>
<!-- Node10 -->
<g id="node10" class="node">
<title>Node10</title>
<g id="a_node10"><a xlink:href="../../d0/d2b/docnode_8cpp.html" target="_top" xlink:title=" ">
<polygon fill="white" stroke="#666666" points="1553,-30 1399,-30 1399,0 1553,0 1553,-30"/>
<text text-anchor="start" x="1407" y="-18" font-family="Helvetica,sans-Serif" font-size="10.00">/home/runner/work/doxygen</text>
<text text-anchor="middle" x="1476" y="-7" font-family="Helvetica,sans-Serif" font-size="10.00">/doxygen/src/docnode.cpp</text>
</a>
</g>
</g>
<!-- Node9&#45;&gt;Node10 -->
<g id="edge9" class="edge">
<title>Node9&#45;&gt;Node10</title>
<path fill="none" stroke="#63b8ff" d="M967.57,-128.16C931.77,-113.25 894.56,-90.54 917,-66 948.87,-31.15 1253.08,-20.41 1398.85,-17.25"/>
<polygon fill="#63b8ff" stroke="#63b8ff" points="966.51,-131.5 977.1,-131.97 969.11,-125 966.51,-131.5"/>
</g>
<!-- Node11 -->
<g id="node11" class="node">
<title>Node11</title>
<g id="a_node11"><a xlink:href="../../dc/d98/doxygen_8cpp.html" target="_top" xlink:title=" ">
<polygon fill="white" stroke="#666666" points="1080,-96 926,-96 926,-66 1080,-66 1080,-96"/>
<text text-anchor="start" x="934" y="-84" font-family="Helvetica,sans-Serif" font-size="10.00">/home/runner/work/doxygen</text>
<text text-anchor="middle" x="1003" y="-73" font-family="Helvetica,sans-Serif" font-size="10.00">/doxygen/src/doxygen.cpp</text>
</a>
</g>
</g>
<!-- Node9&#45;&gt;Node11 -->
<g id="edge10" class="edge">
<title>Node9&#45;&gt;Node11</title>
<path fill="none" stroke="#63b8ff" d="M1013.65,-122.11C1011.33,-113.38 1008.79,-103.78 1006.76,-96.16"/>
<polygon fill="#63b8ff" stroke="#63b8ff" points="1010.28,-123.03 1016.23,-131.8 1017.04,-121.23 1010.28,-123.03"/>
</g>
<!-- Node12 -->
<g id="node12" class="node">
<title>Node12</title>
<g id="a_node12"><a xlink:href="../../dd/d00/fortranscanner_8l.html" target="_top" xlink:title=" ">
<polygon fill="white" stroke="#666666" points="526,-96 368,-96 368,-66 526,-66 526,-96"/>
<text text-anchor="start" x="376" y="-84" font-family="Helvetica,sans-Serif" font-size="10.00">/home/runner/work/doxygen</text>
<text text-anchor="middle" x="447" y="-73" font-family="Helvetica,sans-Serif" font-size="10.00">/doxygen/src/fortranscanner.l</text>
</a>
</g>
</g>
<!-- Node9&#45;&gt;Node12 -->
<g id="edge11" class="edge">
<title>Node9&#45;&gt;Node12</title>
<path fill="none" stroke="#63b8ff" d="M932.35,-132.42C931.23,-132.28 930.11,-132.14 929,-132 754.46,-110.62 709.48,-117.83 535,-96 532.08,-95.64 529.12,-95.25 526.12,-94.84"/>
<polygon fill="#63b8ff" stroke="#63b8ff" points="932.23,-135.93 942.6,-133.76 933.14,-128.99 932.23,-135.93"/>
</g>
<!-- Node13 -->
<g id="node13" class="node">
<title>Node13</title>
<g id="a_node13"><a xlink:href="../../de/d2b/pyscanner_8l.html" target="_top" xlink:title=" ">
<polygon fill="white" stroke="#666666" points="698,-96 544,-96 544,-66 698,-66 698,-96"/>
<text text-anchor="start" x="552" y="-84" font-family="Helvetica,sans-Serif" font-size="10.00">/home/runner/work/doxygen</text>
<text text-anchor="middle" x="621" y="-73" font-family="Helvetica,sans-Serif" font-size="10.00">/doxygen/src/pyscanner.l</text>
</a>
</g>
</g>
<!-- Node9&#45;&gt;Node13 -->
<g id="edge13" class="edge">
<title>Node9&#45;&gt;Node13</title>
<path fill="none" stroke="#63b8ff" d="M932.56,-132.1C869.78,-122.11 783.16,-108.28 707,-96 704.16,-95.54 701.27,-95.08 698.35,-94.6"/>
<polygon fill="#63b8ff" stroke="#63b8ff" points="932.39,-135.62 942.81,-133.74 933.49,-128.71 932.39,-135.62"/>
</g>
<!-- Node14 -->
<g id="node14" class="node">
<title>Node14</title>
<g id="a_node14"><a xlink:href="../../da/d11/scanner_8l.html" target="_top" xlink:title=" ">
<polygon fill="white" stroke="#666666" points="870,-96 716,-96 716,-66 870,-66 870,-96"/>
<text text-anchor="start" x="724" y="-84" font-family="Helvetica,sans-Serif" font-size="10.00">/home/runner/work/doxygen</text>
<text text-anchor="middle" x="793" y="-73" font-family="Helvetica,sans-Serif" font-size="10.00">/doxygen/src/scanner.l</text>
</a>
</g>
</g>
<!-- Node9&#45;&gt;Node14 -->
<g id="edge14" class="edge">
<title>Node9&#45;&gt;Node14</title>
<path fill="none" stroke="#63b8ff" d="M960.13,-129.12C923.53,-118.8 877.27,-105.76 842.7,-96.01"/>
<polygon fill="#63b8ff" stroke="#63b8ff" points="959.61,-132.61 970.18,-131.95 961.51,-125.87 959.61,-132.61"/>
</g>
<!-- Node9&#45;&gt;Node15 -->
<g id="edge15" class="edge">
<title>Node9&#45;&gt;Node15</title>
<path fill="none" stroke="#63b8ff" d="M1063.46,-128.05C1088.02,-117.91 1118.27,-105.43 1141.06,-96.01"/>
<polygon fill="#63b8ff" stroke="#63b8ff" points="1061.92,-124.9 1054.02,-131.95 1064.59,-131.37 1061.92,-124.9"/>
</g>
<!-- Node9&#45;&gt;Node16 -->
<g id="edge16" class="edge">
<title>Node9&#45;&gt;Node16</title>
<path fill="none" stroke="#63b8ff" d="M1102.29,-130.04C1156.2,-119.59 1225.99,-106.05 1277.75,-96.01"/>
<polygon fill="#63b8ff" stroke="#63b8ff" points="1101.57,-126.61 1092.42,-131.95 1102.9,-133.49 1101.57,-126.61"/>
</g>
<!-- Node18&#45;&gt;Node7 -->
<g id="edge30" class="edge">
<title>Node18&#45;&gt;Node7</title>
<path fill="none" stroke="#63b8ff" d="M2567.73,-145.1C2388.28,-142.54 1965.09,-132.76 1612,-96 1608.8,-95.67 1605.55,-95.3 1602.26,-94.89"/>
<polygon fill="#63b8ff" stroke="#63b8ff" points="2567.86,-148.61 2577.9,-145.25 2567.95,-141.61 2567.86,-148.61"/>
</g>
<!-- Node18&#45;&gt;Node11 -->
<g id="edge26" class="edge">
<title>Node18&#45;&gt;Node11</title>
<path fill="none" stroke="#63b8ff" d="M2567.67,-144.7C2282.36,-140.23 1379.34,-124.15 1089,-96 1086.14,-95.72 1083.23,-95.41 1080.29,-95.07"/>
<polygon fill="#63b8ff" stroke="#63b8ff" points="2567.91,-148.21 2577.97,-144.86 2568.02,-141.21 2567.91,-148.21"/>
</g>
<!-- Node18&#45;&gt;Node15 -->
<g id="edge37" class="edge">
<title>Node18&#45;&gt;Node15</title>
<path fill="none" stroke="#63b8ff" d="M2567.57,-146.61C2347.66,-147.32 1753.94,-144.22 1262,-96 1258.8,-95.69 1255.54,-95.33 1252.26,-94.94"/>
<polygon fill="#63b8ff" stroke="#63b8ff" points="2567.77,-150.11 2577.76,-146.57 2567.75,-143.11 2567.77,-150.11"/>
</g>
<!-- Node18&#45;&gt;Node16 -->
<g id="edge40" class="edge">
<title>Node18&#45;&gt;Node16</title>
<path fill="none" stroke="#63b8ff" d="M2567.81,-145.85C2367.77,-144.75 1860.61,-137.69 1439,-96 1435.89,-95.69 1432.72,-95.35 1429.52,-94.97"/>
<polygon fill="#63b8ff" stroke="#63b8ff" points="2567.94,-149.35 2577.96,-145.9 2567.98,-142.35 2567.94,-149.35"/>
</g>
<!-- Node18&#45;&gt;Node17 -->
<g id="edge35" class="edge">
<title>Node18&#45;&gt;Node17</title>
<path fill="none" stroke="#63b8ff" d="M2567.92,-143.74C2411.83,-139.07 2074.26,-126.16 1791,-96 1788.01,-95.68 1784.97,-95.33 1781.9,-94.96"/>
<polygon fill="#63b8ff" stroke="#63b8ff" points="2567.83,-147.24 2577.93,-144.04 2568.04,-140.24 2567.83,-147.24"/>
</g>
<!-- Node19 -->
<g id="node19" class="node">
<title>Node19</title>
<g id="a_node19"><a xlink:href="../../de/d89/classdef_8cpp.html" target="_top" xlink:title=" ">
<polygon fill="white" stroke="#666666" points="2474,-96 2320,-96 2320,-66 2474,-66 2474,-96"/>
<text text-anchor="start" x="2328" y="-84" font-family="Helvetica,sans-Serif" font-size="10.00">/home/runner/work/doxygen</text>
<text text-anchor="middle" x="2397" y="-73" font-family="Helvetica,sans-Serif" font-size="10.00">/doxygen/src/classdef.cpp</text>
</a>
</g>
</g>
<!-- Node18&#45;&gt;Node19 -->
<g id="edge19" class="edge">
<title>Node18&#45;&gt;Node19</title>
<path fill="none" stroke="#63b8ff" d="M2588.55,-129.52C2546.71,-119.14 2493.28,-105.88 2453.49,-96.01"/>
<polygon fill="#63b8ff" stroke="#63b8ff" points="2587.83,-132.94 2598.38,-131.95 2589.52,-126.15 2587.83,-132.94"/>
</g>
<!-- Node20 -->
<g id="node20" class="node">
<title>Node20</title>
<g id="a_node20"><a xlink:href="../../da/d1f/code_8l.html" target="_top" xlink:title=" ">
<polygon fill="white" stroke="#666666" points="2646,-96 2492,-96 2492,-66 2646,-66 2646,-96"/>
<text text-anchor="start" x="2500" y="-84" font-family="Helvetica,sans-Serif" font-size="10.00">/home/runner/work/doxygen</text>
<text text-anchor="middle" x="2569" y="-73" font-family="Helvetica,sans-Serif" font-size="10.00">/doxygen/src/code.l</text>
</a>
</g>
</g>
<!-- Node18&#45;&gt;Node20 -->
<g id="edge20" class="edge">
<title>Node18&#45;&gt;Node20</title>
<path fill="none" stroke="#63b8ff" d="M2627.79,-125.75C2614.86,-116.13 2599.71,-104.86 2588.03,-96.16"/>
<polygon fill="#63b8ff" stroke="#63b8ff" points="2625.8,-128.63 2635.91,-131.8 2629.98,-123.02 2625.8,-128.63"/>
</g>
<!-- Node21 -->
<g id="node21" class="node">
<title>Node21</title>
<g id="a_node21"><a xlink:href="../../d8/d0a/conceptdef_8cpp.html" target="_top" xlink:title=" ">
<polygon fill="white" stroke="#666666" points="2819.5,-96 2664.5,-96 2664.5,-66 2819.5,-66 2819.5,-96"/>
<text text-anchor="start" x="2672.5" y="-84" font-family="Helvetica,sans-Serif" font-size="10.00">/home/runner/work/doxygen</text>
<text text-anchor="middle" x="2742" y="-73" font-family="Helvetica,sans-Serif" font-size="10.00">/doxygen/src/conceptdef.cpp</text>
</a>
</g>
</g>
<!-- Node18&#45;&gt;Node21 -->
<g id="edge21" class="edge">
<title>Node18&#45;&gt;Node21</title>
<path fill="none" stroke="#63b8ff" d="M2682.52,-125.75C2695.61,-116.13 2710.93,-104.86 2722.75,-96.16"/>
<polygon fill="#63b8ff" stroke="#63b8ff" points="2680.29,-123.05 2674.31,-131.8 2684.44,-128.69 2680.29,-123.05"/>
</g>
<!-- Node22 -->
<g id="node22" class="node">
<title>Node22</title>
<g id="a_node22"><a xlink:href="../../db/d12/context_8cpp.html" target="_top" xlink:title=" ">
<polygon fill="white" stroke="#666666" points="2992,-96 2838,-96 2838,-66 2992,-66 2992,-96"/>
<text text-anchor="start" x="2846" y="-84" font-family="Helvetica,sans-Serif" font-size="10.00">/home/runner/work/doxygen</text>
<text text-anchor="middle" x="2915" y="-73" font-family="Helvetica,sans-Serif" font-size="10.00">/doxygen/src/context.cpp</text>
</a>
</g>
</g>
<!-- Node18&#45;&gt;Node22 -->
<g id="edge22" class="edge">
<title>Node18&#45;&gt;Node22</title>
<path fill="none" stroke="#63b8ff" d="M2721.96,-129.52C2764.13,-119.14 2817.97,-105.88 2858.07,-96.01"/>
<polygon fill="#63b8ff" stroke="#63b8ff" points="2720.93,-126.17 2712.06,-131.95 2722.6,-132.96 2720.93,-126.17"/>
</g>
<!-- Node23 -->
<g id="node23" class="node">
<title>Node23</title>
<g id="a_node23"><a xlink:href="../../df/dc9/docparser__p_8h.html" target="_top" xlink:title="Private header shared between docparser.cpp and docnode.cpp.">
<polygon fill="white" stroke="#666666" points="2302,-96 2148,-96 2148,-66 2302,-66 2302,-96"/>
<text text-anchor="start" x="2156" y="-84" font-family="Helvetica,sans-Serif" font-size="10.00">/home/runner/work/doxygen</text>
<text text-anchor="middle" x="2225" y="-73" font-family="Helvetica,sans-Serif" font-size="10.00">/doxygen/src/docparser_p.h</text>
</a>
</g>
</g>
<!-- Node18&#45;&gt;Node23 -->
<g id="edge23" class="edge">
<title>Node18&#45;&gt;Node23</title>
<path fill="none" stroke="#63b8ff" d="M2567.71,-133.73C2498.14,-123.85 2398.27,-109.44 2311,-96 2308.16,-95.56 2305.27,-95.11 2302.35,-94.65"/>
<polygon fill="#63b8ff" stroke="#63b8ff" points="2567.36,-137.22 2577.75,-135.16 2568.34,-130.29 2567.36,-137.22"/>
</g>
<!-- Node25 -->
<g id="node25" class="node">
<title>Node25</title>
<g id="a_node25"><a xlink:href="../../d6/ddc/filedef_8cpp.html" target="_top" xlink:title=" ">
<polygon fill="white" stroke="#666666" points="3164,-96 3010,-96 3010,-66 3164,-66 3164,-96"/>
<text text-anchor="start" x="3018" y="-84" font-family="Helvetica,sans-Serif" font-size="10.00">/home/runner/work/doxygen</text>
<text text-anchor="middle" x="3087" y="-73" font-family="Helvetica,sans-Serif" font-size="10.00">/doxygen/src/filedef.cpp</text>
</a>
</g>
</g>
<!-- Node18&#45;&gt;Node25 -->
<g id="edge27" class="edge">
<title>Node18&#45;&gt;Node25</title>
<path fill="none" stroke="#63b8ff" d="M2742.12,-133.85C2812.12,-123.98 2912.95,-109.53 3001,-96 3003.84,-95.56 3006.73,-95.11 3009.66,-94.66"/>
<polygon fill="#63b8ff" stroke="#63b8ff" points="2741.43,-130.41 2732.02,-135.27 2742.41,-137.34 2741.43,-130.41"/>
</g>
<!-- Node26 -->
<g id="node26" class="node">
<title>Node26</title>
<g id="a_node26"><a xlink:href="../../d9/d5b/fortrancode_8l.html" target="_top" xlink:title=" ">
<polygon fill="white" stroke="#666666" points="3336,-96 3182,-96 3182,-66 3336,-66 3336,-96"/>
<text text-anchor="start" x="3190" y="-84" font-family="Helvetica,sans-Serif" font-size="10.00">/home/runner/work/doxygen</text>
<text text-anchor="middle" x="3259" y="-73" font-family="Helvetica,sans-Serif" font-size="10.00">/doxygen/src/fortrancode.l</text>
</a>
</g>
</g>
<!-- Node18&#45;&gt;Node26 -->
<g id="edge28" class="edge">
<title>Node18&#45;&gt;Node26</title>
<path fill="none" stroke="#63b8ff" d="M2742.46,-139.31C2845.6,-131.01 3022.12,-115.54 3173,-96 3175.85,-95.63 3178.75,-95.24 3181.68,-94.83"/>
<polygon fill="#63b8ff" stroke="#63b8ff" points="2742.09,-135.82 2732.41,-140.11 2742.65,-142.8 2742.09,-135.82"/>
</g>
<!-- Node27 -->
<g id="node27" class="node">
<title>Node27</title>
<g id="a_node27"><a xlink:href="../../d6/d42/groupdef_8cpp.html" target="_top" xlink:title=" ">
<polygon fill="white" stroke="#666666" points="3508,-96 3354,-96 3354,-66 3508,-66 3508,-96"/>
<text text-anchor="start" x="3362" y="-84" font-family="Helvetica,sans-Serif" font-size="10.00">/home/runner/work/doxygen</text>
<text text-anchor="middle" x="3431" y="-73" font-family="Helvetica,sans-Serif" font-size="10.00">/doxygen/src/groupdef.cpp</text>
</a>
</g>
</g>
<!-- Node18&#45;&gt;Node27 -->
<g id="edge29" class="edge">
<title>Node18&#45;&gt;Node27</title>
<path fill="none" stroke="#63b8ff" d="M2742.04,-142.18C2873.13,-135.87 3128.91,-121.37 3345,-96 3347.85,-95.66 3350.76,-95.3 3353.69,-94.92"/>
<polygon fill="#63b8ff" stroke="#63b8ff" points="2741.87,-138.69 2732.05,-142.66 2742.2,-145.68 2741.87,-138.69"/>
</g>
<!-- Node28 -->
<g id="node28" class="node">
<title>Node28</title>
<g id="a_node28"><a xlink:href="../../d0/d7e/lexcode_8l.html" target="_top" xlink:title=" ">
<polygon fill="white" stroke="#666666" points="3680,-96 3526,-96 3526,-66 3680,-66 3680,-96"/>
<text text-anchor="start" x="3534" y="-84" font-family="Helvetica,sans-Serif" font-size="10.00">/home/runner/work/doxygen</text>
<text text-anchor="middle" x="3603" y="-73" font-family="Helvetica,sans-Serif" font-size="10.00">/doxygen/src/lexcode.l</text>
</a>
</g>
</g>
<!-- Node18&#45;&gt;Node28 -->
<g id="edge31" class="edge">
<title>Node18&#45;&gt;Node28</title>
<path fill="none" stroke="#63b8ff" d="M2742.21,-143.92C2898.1,-139.54 3234.69,-127.08 3517,-96 3519.86,-95.69 3522.76,-95.34 3525.7,-94.97"/>
<polygon fill="#63b8ff" stroke="#63b8ff" points="2742.1,-140.42 2732.2,-144.2 2742.29,-147.42 2742.1,-140.42"/>
</g>
<!-- Node29 -->
<g id="node29" class="node">
<title>Node29</title>
<g id="a_node29"><a xlink:href="../../d0/d72/memberdef_8cpp.html" target="_top" xlink:title=" ">
<polygon fill="white" stroke="#666666" points="3856,-96 3698,-96 3698,-66 3856,-66 3856,-96"/>
<text text-anchor="start" x="3706" y="-84" font-family="Helvetica,sans-Serif" font-size="10.00">/home/runner/work/doxygen</text>
<text text-anchor="middle" x="3777" y="-73" font-family="Helvetica,sans-Serif" font-size="10.00">/doxygen/src/memberdef.cpp</text>
</a>
</g>
</g>
<!-- Node18&#45;&gt;Node29 -->
<g id="edge32" class="edge">
<title>Node18&#45;&gt;Node29</title>
<path fill="none" stroke="#63b8ff" d="M2742.18,-145C2920.45,-142.25 3339.36,-132.16 3689,-96 3691.92,-95.7 3694.9,-95.36 3697.9,-95"/>
<polygon fill="#63b8ff" stroke="#63b8ff" points="2742.02,-141.5 2732.07,-145.15 2742.12,-148.5 2742.02,-141.5"/>
</g>
<!-- Node30 -->
<g id="node30" class="node">
<title>Node30</title>
<g id="a_node30"><a xlink:href="../../d7/d1c/namespacedef_8cpp.html" target="_top" xlink:title=" ">
<polygon fill="white" stroke="#666666" points="4047.5,-96 3874.5,-96 3874.5,-66 4047.5,-66 4047.5,-96"/>
<text text-anchor="start" x="3882.5" y="-84" font-family="Helvetica,sans-Serif" font-size="10.00">/home/runner/work/doxygen</text>
<text text-anchor="middle" x="3961" y="-73" font-family="Helvetica,sans-Serif" font-size="10.00">/doxygen/src/namespacedef.cpp</text>
</a>
</g>
</g>
<!-- Node18&#45;&gt;Node30 -->
<g id="edge33" class="edge">
<title>Node18&#45;&gt;Node30</title>
<path fill="none" stroke="#63b8ff" d="M2742.46,-145.49C2941.95,-143.63 3445.76,-135.13 3865,-96 3868.1,-95.71 3871.26,-95.39 3874.44,-95.04"/>
<polygon fill="#63b8ff" stroke="#63b8ff" points="2742.3,-141.99 2732.34,-145.58 2742.37,-148.99 2742.3,-141.99"/>
</g>
<!-- Node31 -->
<g id="node31" class="node">
<title>Node31</title>
<g id="a_node31"><a xlink:href="../../d3/ded/pycode_8l.html" target="_top" xlink:title=" ">
<polygon fill="white" stroke="#666666" points="4220,-96 4066,-96 4066,-66 4220,-66 4220,-96"/>
<text text-anchor="start" x="4074" y="-84" font-family="Helvetica,sans-Serif" font-size="10.00">/home/runner/work/doxygen</text>
<text text-anchor="middle" x="4143" y="-73" font-family="Helvetica,sans-Serif" font-size="10.00">/doxygen/src/pycode.l</text>
</a>
</g>
</g>
<!-- Node18&#45;&gt;Node31 -->
<g id="edge34" class="edge">
<title>Node18&#45;&gt;Node31</title>
<path fill="none" stroke="#63b8ff" d="M2742.6,-146.69C2963.62,-147.61 3561.63,-144.96 4057,-96 4059.86,-95.72 4062.77,-95.4 4065.71,-95.05"/>
<polygon fill="#63b8ff" stroke="#63b8ff" points="2742.37,-143.19 2732.36,-146.65 2742.34,-150.19 2742.37,-143.19"/>
</g>
<!-- Node32 -->
<g id="node32" class="node">
<title>Node32</title>
<g id="a_node32"><a xlink:href="../../d2/dda/sqlcode_8l.html" target="_top" xlink:title=" ">
<polygon fill="white" stroke="#666666" points="4392,-96 4238,-96 4238,-66 4392,-66 4392,-96"/>
<text text-anchor="start" x="4246" y="-84" font-family="Helvetica,sans-Serif" font-size="10.00">/home/runner/work/doxygen</text>
<text text-anchor="middle" x="4315" y="-73" font-family="Helvetica,sans-Serif" font-size="10.00">/doxygen/src/sqlcode.l</text>
</a>
</g>
</g>
<!-- Node18&#45;&gt;Node32 -->
<g id="edge36" class="edge">
<title>Node18&#45;&gt;Node32</title>
<path fill="none" stroke="#63b8ff" d="M2742.77,-144.71C3029.55,-140.27 3937.18,-124.27 4229,-96 4231.86,-95.72 4234.77,-95.41 4237.71,-95.07"/>
<polygon fill="#63b8ff" stroke="#63b8ff" points="2742.37,-141.22 2732.43,-144.87 2742.48,-148.22 2742.37,-141.22"/>
</g>
<!-- Node33 -->
<g id="node33" class="node">
<title>Node33</title>
<g id="a_node33"><a xlink:href="../../d5/d6a/vhdlcode_8l.html" target="_top" xlink:title=" ">
<polygon fill="white" stroke="#666666" points="4564,-96 4410,-96 4410,-66 4564,-66 4564,-96"/>
<text text-anchor="start" x="4418" y="-84" font-family="Helvetica,sans-Serif" font-size="10.00">/home/runner/work/doxygen</text>
<text text-anchor="middle" x="4487" y="-73" font-family="Helvetica,sans-Serif" font-size="10.00">/doxygen/src/vhdlcode.l</text>
</a>
</g>
</g>
<!-- Node18&#45;&gt;Node33 -->
<g id="edge38" class="edge">
<title>Node18&#45;&gt;Node33</title>
<path fill="none" stroke="#63b8ff" d="M2742.31,-145.03C3048.67,-141.41 4073.78,-127.18 4401,-96 4403.86,-95.73 4406.77,-95.42 4409.71,-95.08"/>
<polygon fill="#63b8ff" stroke="#63b8ff" points="2742.11,-141.54 2732.15,-145.15 2742.19,-148.54 2742.11,-141.54"/>
</g>
<!-- Node34 -->
<g id="node34" class="node">
<title>Node34</title>
<g id="a_node34"><a xlink:href="../../de/dea/vhdldocgen_8cpp.html" target="_top" xlink:title=" ">
<polygon fill="white" stroke="#666666" points="1958,-96 1800,-96 1800,-66 1958,-66 1958,-96"/>
<text text-anchor="start" x="1808" y="-84" font-family="Helvetica,sans-Serif" font-size="10.00">/home/runner/work/doxygen</text>
<text text-anchor="middle" x="1879" y="-73" font-family="Helvetica,sans-Serif" font-size="10.00">/doxygen/src/vhdldocgen.cpp</text>
</a>
</g>
</g>
<!-- Node18&#45;&gt;Node34 -->
<g id="edge39" class="edge">
<title>Node18&#45;&gt;Node34</title>
<path fill="none" stroke="#63b8ff" d="M2567.57,-142.04C2436.68,-135.56 2182.15,-120.89 1967,-96 1964.08,-95.66 1961.11,-95.3 1958.11,-94.91"/>
<polygon fill="#63b8ff" stroke="#63b8ff" points="2567.77,-145.55 2577.93,-142.55 2568.11,-138.56 2567.77,-145.55"/>
</g>
<!-- Node35 -->
<g id="node35" class="node">
<title>Node35</title>
<g id="a_node35"><a xlink:href="../../dc/dc1/xmlcode_8l.html" target="_top" xlink:title=" ">
<polygon fill="white" stroke="#666666" points="2130,-96 1976,-96 1976,-66 2130,-66 2130,-96"/>
<text text-anchor="start" x="1984" y="-84" font-family="Helvetica,sans-Serif" font-size="10.00">/home/runner/work/doxygen</text>
<text text-anchor="middle" x="2053" y="-73" font-family="Helvetica,sans-Serif" font-size="10.00">/doxygen/src/xmlcode.l</text>
</a>
</g>
</g>
<!-- Node18&#45;&gt;Node35 -->
<g id="edge41" class="edge">
<title>Node18&#45;&gt;Node35</title>
<path fill="none" stroke="#63b8ff" d="M2567.88,-139.29C2465.13,-130.98 2289.3,-115.49 2139,-96 2136.15,-95.63 2133.25,-95.24 2130.32,-94.83"/>
<polygon fill="#63b8ff" stroke="#63b8ff" points="2567.64,-142.78 2577.89,-140.1 2568.21,-135.81 2567.64,-142.78"/>
</g>
<!-- Node23&#45;&gt;Node10 -->
<g id="edge24" class="edge">
<title>Node23&#45;&gt;Node10</title>
<path fill="none" stroke="#63b8ff" d="M2137.68,-65.91C1920.1,-40.43 1674.96,-25.91 1553.03,-19.65"/>
<polygon fill="#63b8ff" stroke="#63b8ff" points="2137.35,-69.39 2147.69,-67.09 2138.17,-62.44 2137.35,-69.39"/>
</g>
<!-- Node24 -->
<g id="node24" class="node">
<title>Node24</title>
<g id="a_node24"><a xlink:href="../../da/d17/docparser_8cpp.html" target="_top" xlink:title=" ">
<polygon fill="white" stroke="#666666" points="2302,-30 2148,-30 2148,0 2302,0 2302,-30"/>
<text text-anchor="start" x="2156" y="-18" font-family="Helvetica,sans-Serif" font-size="10.00">/home/runner/work/doxygen</text>
<text text-anchor="middle" x="2225" y="-7" font-family="Helvetica,sans-Serif" font-size="10.00">/doxygen/src/docparser.cpp</text>
</a>
</g>
</g>
<!-- Node23&#45;&gt;Node24 -->
<g id="edge25" class="edge">
<title>Node23&#45;&gt;Node24</title>
<path fill="none" stroke="#63b8ff" d="M2225,-55.54C2225,-46.96 2225,-37.61 2225,-30.16"/>
<polygon fill="#63b8ff" stroke="#63b8ff" points="2221.5,-55.8 2225,-65.8 2228.5,-55.8 2221.5,-55.8"/>
</g>
</g>
</svg>
        <g id="navigator" transform="translate(0 0)" fill="#404254">
                <rect fill="#f2f5e9" fill-opacity="0.5" stroke="#606060" stroke-width=".5" x="0" y="0" width="60" height="60"/>
                <use id="zoomplus" xlink:href="#zoomPlus" x="17" y="9" onmousedown="handleZoom(evt,'in')"/>
                <use id="zoomminus" xlink:href="#zoomMin" x="42" y="9" onmousedown="handleZoom(evt,'out')"/>
                <use id="reset" xlink:href="#resetDef" x="30" y="36" onmousedown="handleReset()"/>
                <g id="arrowUp" xlink:href="#dirArrow" transform="translate(30 24)" onmousedown="handlePan(0,-1)">
                  <use xlink:href="#rim" fill="#404040">
                        <set attributeName="fill" to="#808080" begin="arrowUp.mouseover" end="arrowUp.mouseout"/>
                  </use>
                  <path fill="none" stroke="white" stroke-width="1.5" d="M0,-3.0v7 M-2.5,-0.5L0,-3.0L2.5,-0.5"/>
                </g>
                <g id="arrowRight" xlink:href="#dirArrow" transform="rotate(90) translate(36 -43)" onmousedown="handlePan(1,0)">
                  <use xlink:href="#rim" fill="#404040">
                        <set attributeName="fill" to="#808080" begin="arrowRight.mouseover" end="arrowRight.mouseout"/>
                  </use>
                  <path fill="none" stroke="white" stroke-width="1.5" d="M0,-3.0v7 M-2.5,-0.5L0,-3.0L2.5,-0.5"/>
                </g>
                <g id="arrowDown" xlink:href="#dirArrow" transform="rotate(180) translate(-30 -48)" onmousedown="handlePan(0,1)">
                  <use xlink:href="#rim" fill="#404040">
                        <set attributeName="fill" to="#808080" begin="arrowDown.mouseover" end="arrowDown.mouseout"/>
                  </use>
                  <path fill="none" stroke="white" stroke-width="1.5" d="M0,-3.0v7 M-2.5,-0.5L0,-3.0L2.5,-0.5"/>
                </g>
                <g id="arrowLeft" xlink:href="#dirArrow" transform="rotate(270) translate(-36 17)" onmousedown="handlePan(-1,0)">
                  <use xlink:href="#rim" fill="#404040">
                        <set attributeName="fill" to="#808080" begin="arrowLeft.mouseover" end="arrowLeft.mouseout"/>
                  </use>
                  <path fill="none" stroke="white" stroke-width="1.5" d="M0,-3.0v7 M-2.5,-0.5L0,-3.0L2.5,-0.5"/>
                </g>
        </g>
        <svg viewBox="0 0 15 15" width="100%" height="30px" preserveAspectRatio="xMaxYMin meet">
         <g id="arrow_out" transform="scale(0.3 0.3)">
          <a xlink:href="growbuf_8h__dep__incl_org.svg" target="_base">
           <rect id="button" ry="5" rx="5" y="6" x="6" height="38" width="38"
                fill="#f2f5e9" fill-opacity="0.5" stroke="#606060" stroke-width="1.0"/>
           <path id="arrow"
             d="M 11.500037,31.436501 C 11.940474,20.09759 22.043105,11.32322 32.158766,21.979434 L 37.068811,17.246167 C 37.068811,17.246167 37.088388,32 37.088388,32 L 22.160133,31.978069 C 22.160133,31.978069 26.997745,27.140456 26.997745,27.140456 C 18.528582,18.264221 13.291696,25.230495 11.500037,31.436501 z"
             style="fill:#404040;"/>
          </a>
         </g>
        </svg>
</svg>
