<?xml version="1.0" encoding="UTF-8" standalone="no"?>
<!DOCTYPE svg PUBLIC "-//W3C//DTD SVG 1.1//EN"
 "https://www.w3.org/Graphics/SVG/1.1/DTD/svg11.dtd"><!-- Generated by graphviz version 2.43.0 (0)
 -->
<!-- Title: /home/runner/work/doxygen/doxygen/src/htmlentity.h Pages: 1 -->
<svg width="546pt" height="203pt"
 viewBox="0.00 0.00 545.64 203.00" xmlns="http://www.w3.org/2000/svg" xmlns:xlink="http://www.w3.org/1999/xlink">
<g id="graph0" class="graph" transform="scale(1 1) rotate(0) translate(4 199)">
<title/>
<!-- Node1 -->
<g id="Node000001" class="node">
<title/>
<polygon fill="#999999" stroke="#666666" points="368.64,-195 214.64,-195 214.64,-165 368.64,-165 368.64,-195"/>
<text text-anchor="start" x="222.64" y="-183" font-family="Helvetica,sans-Serif" font-size="10.00">/home/runner/work/doxygen</text>
<text text-anchor="middle" x="291.64" y="-172" font-family="Helvetica,sans-Serif" font-size="10.00">/doxygen/src/htmlentity.h</text>
</g>
<!-- Node2 -->
<g id="Node000002" class="node">
<title/>
<polygon fill="#e0e0e0" stroke="#999999" points="241.14,-129 148.14,-129 148.14,-110 241.14,-110 241.14,-129"/>
<text text-anchor="middle" x="194.64" y="-117" font-family="Helvetica,sans-Serif" font-size="10.00">unordered_map</text>
</g>
<!-- Node1&#45;&gt;Node2 -->
<g id="edge1_Node000001_Node000002" class="edge">
<title/>
<path fill="none" stroke="#63b8ff" d="M268.16,-164.84C252.83,-155.6 232.92,-143.59 217.69,-134.4"/>
<polygon fill="#63b8ff" stroke="#63b8ff" points="219.26,-131.26 208.89,-129.09 215.64,-137.26 219.26,-131.26"/>
</g>
<!-- Node3 -->
<g id="Node000003" class="node">
<title/>
<polygon fill="#e0e0e0" stroke="#999999" points="537.64,-19 493.64,-19 493.64,0 537.64,0 537.64,-19"/>
<text text-anchor="middle" x="515.64" y="-7" font-family="Helvetica,sans-Serif" font-size="10.00">string</text>
</g>
<!-- Node1&#45;&gt;Node3 -->
<g id="edge2_Node000001_Node000003" class="edge">
<title/>
<path fill="none" stroke="#63b8ff" d="M368.61,-164.97C419.87,-151.2 483.5,-124.56 515.64,-74 524.05,-60.77 523.11,-42.65 520.62,-29.15"/>
<polygon fill="#63b8ff" stroke="#63b8ff" points="523.97,-28.08 518.33,-19.11 517.14,-29.63 523.97,-28.08"/>
</g>
<!-- Node4 -->
<g id="Node000004" class="node">
<g id="a_Node000004"><a xlink:href="../../d7/d5c/qcstring_8h.html" target="_top" xlink:title=" ">
<polygon fill="white" stroke="#666666" points="324.14,-129 259.14,-129 259.14,-110 324.14,-110 324.14,-129"/>
<text text-anchor="middle" x="291.64" y="-117" font-family="Helvetica,sans-Serif" font-size="10.00">qcstring.h</text>
</a>
</g>
</g>
<!-- Node1&#45;&gt;Node4 -->
<g id="edge3_Node000001_Node000004" class="edge">
<title/>
<path fill="none" stroke="#63b8ff" d="M291.64,-164.84C291.64,-157.21 291.64,-147.7 291.64,-139.45"/>
<polygon fill="#63b8ff" stroke="#63b8ff" points="295.14,-139.27 291.64,-129.27 288.14,-139.27 295.14,-139.27"/>
</g>
<!-- Node4&#45;&gt;Node3 -->
<g id="edge4_Node000004_Node000003" class="edge">
<title/>
<path fill="none" stroke="#63b8ff" d="M324.49,-115.41C375.87,-109.93 471.92,-96.89 496.64,-74 508.9,-62.65 513.36,-43.75 514.93,-29.51"/>
<polygon fill="#63b8ff" stroke="#63b8ff" points="518.44,-29.55 515.66,-19.33 511.45,-29.05 518.44,-29.55"/>
</g>
<!-- Node5 -->
<g id="Node000005" class="node">
<title/>
<polygon fill="#e0e0e0" stroke="#999999" points="81.64,-74 17.64,-74 17.64,-55 81.64,-55 81.64,-74"/>
<text text-anchor="middle" x="49.64" y="-62" font-family="Helvetica,sans-Serif" font-size="10.00">algorithm</text>
</g>
<!-- Node4&#45;&gt;Node5 -->
<g id="edge5_Node000004_Node000005" class="edge">
<title/>
<path fill="none" stroke="#63b8ff" d="M259,-111.35C215.73,-101.88 139.31,-85.14 91.74,-74.72"/>
<polygon fill="#63b8ff" stroke="#63b8ff" points="92.27,-71.26 81.76,-72.53 90.78,-78.09 92.27,-71.26"/>
</g>
<!-- Node6 -->
<g id="Node000006" class="node">
<title/>
<polygon fill="#e0e0e0" stroke="#999999" points="149.14,-74 100.14,-74 100.14,-55 149.14,-55 149.14,-74"/>
<text text-anchor="middle" x="124.64" y="-62" font-family="Helvetica,sans-Serif" font-size="10.00">cctype</text>
</g>
<!-- Node4&#45;&gt;Node6 -->
<g id="edge6_Node000004_Node000006" class="edge">
<title/>
<path fill="none" stroke="#63b8ff" d="M264.81,-109.98C236.02,-100.85 190.22,-86.31 158.86,-76.36"/>
<polygon fill="#63b8ff" stroke="#63b8ff" points="159.81,-72.99 149.22,-73.3 157.7,-79.66 159.81,-72.99"/>
</g>
<!-- Node7 -->
<g id="Node000007" class="node">
<title/>
<polygon fill="#e0e0e0" stroke="#999999" points="217.64,-74 167.64,-74 167.64,-55 217.64,-55 217.64,-74"/>
<text text-anchor="middle" x="192.64" y="-62" font-family="Helvetica,sans-Serif" font-size="10.00">cstring</text>
</g>
<!-- Node4&#45;&gt;Node7 -->
<g id="edge7_Node000004_Node000007" class="edge">
<title/>
<path fill="none" stroke="#63b8ff" d="M275.73,-109.98C260.09,-101.61 235.98,-88.7 217.75,-78.95"/>
<polygon fill="#63b8ff" stroke="#63b8ff" points="219.3,-75.8 208.83,-74.17 216,-81.98 219.3,-75.8"/>
</g>
<!-- Node8 -->
<g id="Node000008" class="node">
<title/>
<polygon fill="#e0e0e0" stroke="#999999" points="281.64,-74 235.64,-74 235.64,-55 281.64,-55 281.64,-74"/>
<text text-anchor="middle" x="258.64" y="-62" font-family="Helvetica,sans-Serif" font-size="10.00">cstdio</text>
</g>
<!-- Node4&#45;&gt;Node8 -->
<g id="edge8_Node000004_Node000008" class="edge">
<title/>
<path fill="none" stroke="#63b8ff" d="M286.19,-109.75C281.62,-102.42 274.97,-91.73 269.34,-82.7"/>
<polygon fill="#63b8ff" stroke="#63b8ff" points="272.24,-80.73 263.98,-74.09 266.3,-84.43 272.24,-80.73"/>
</g>
<!-- Node9 -->
<g id="Node000009" class="node">
<title/>
<polygon fill="#e0e0e0" stroke="#999999" points="349.14,-74 300.14,-74 300.14,-55 349.14,-55 349.14,-74"/>
<text text-anchor="middle" x="324.64" y="-62" font-family="Helvetica,sans-Serif" font-size="10.00">cstdlib</text>
</g>
<!-- Node4&#45;&gt;Node9 -->
<g id="edge9_Node000004_Node000009" class="edge">
<title/>
<path fill="none" stroke="#63b8ff" d="M297.09,-109.75C301.65,-102.42 308.3,-91.73 313.93,-82.7"/>
<polygon fill="#63b8ff" stroke="#63b8ff" points="316.97,-84.43 319.29,-74.09 311.03,-80.73 316.97,-84.43"/>
</g>
<!-- Node10 -->
<g id="Node000010" class="node">
<title/>
<polygon fill="#e0e0e0" stroke="#999999" points="214.64,-19 164.64,-19 164.64,0 214.64,0 214.64,-19"/>
<text text-anchor="middle" x="189.64" y="-7" font-family="Helvetica,sans-Serif" font-size="10.00">cstdint</text>
</g>
<!-- Node4&#45;&gt;Node10 -->
<g id="edge10_Node000004_Node000010" class="edge">
<title/>
<path fill="none" stroke="#63b8ff" d="M259.11,-111.75C255.91,-111.13 252.71,-110.54 249.64,-110 196.3,-100.63 43.98,-115.02 8.64,-74 -33.27,-25.37 90.56,-13.97 154.29,-11.31"/>
<polygon fill="#63b8ff" stroke="#63b8ff" points="154.48,-14.8 164.34,-10.94 154.22,-7.81 154.48,-14.8"/>
</g>
<!-- Node11 -->
<g id="Node000011" class="node">
<title/>
<polygon fill="#e0e0e0" stroke="#999999" points="487.14,-74 430.14,-74 430.14,-55 487.14,-55 487.14,-74"/>
<text text-anchor="middle" x="458.64" y="-62" font-family="Helvetica,sans-Serif" font-size="10.00">ostream</text>
</g>
<!-- Node4&#45;&gt;Node11 -->
<g id="edge11_Node000004_Node000011" class="edge">
<title/>
<path fill="none" stroke="#63b8ff" d="M318.47,-109.98C346.51,-101.09 390.68,-87.07 421.94,-77.15"/>
<polygon fill="#63b8ff" stroke="#63b8ff" points="423.12,-80.44 431.59,-74.08 421,-73.77 423.12,-80.44"/>
</g>
<!-- Node12 -->
<g id="Node000012" class="node">
<g id="a_Node000012"><a xlink:href="../../db/d7c/utf8_8h.html" target="_top" xlink:title="Various UTF8 related helper functions.">
<polygon fill="white" stroke="#666666" points="412.14,-74 367.14,-74 367.14,-55 412.14,-55 412.14,-74"/>
<text text-anchor="middle" x="389.64" y="-62" font-family="Helvetica,sans-Serif" font-size="10.00">utf8.h</text>
</a>
</g>
</g>
<!-- Node4&#45;&gt;Node12 -->
<g id="edge12_Node000004_Node000012" class="edge">
<title/>
<path fill="none" stroke="#63b8ff" d="M307.38,-109.98C322.86,-101.61 346.73,-88.7 364.77,-78.95"/>
<polygon fill="#63b8ff" stroke="#63b8ff" points="366.47,-82.01 373.6,-74.17 363.14,-75.85 366.47,-82.01"/>
</g>
<!-- Node12&#45;&gt;Node3 -->
<g id="edge14_Node000012_Node000003" class="edge">
<title/>
<path fill="none" stroke="#63b8ff" d="M409.88,-54.98C430.33,-46.38 462.17,-32.99 485.57,-23.15"/>
<polygon fill="#63b8ff" stroke="#63b8ff" points="487.16,-26.27 495.02,-19.17 484.45,-19.82 487.16,-26.27"/>
</g>
<!-- Node12&#45;&gt;Node10 -->
<g id="edge13_Node000012_Node000010" class="edge">
<title/>
<path fill="none" stroke="#63b8ff" d="M366.96,-57.25C364.16,-56.49 361.33,-55.72 358.64,-55 312.43,-42.58 259.03,-28.58 224.82,-19.65"/>
<polygon fill="#63b8ff" stroke="#63b8ff" points="225.41,-16.19 214.85,-17.05 223.65,-22.96 225.41,-16.19"/>
</g>
</g>
</svg>
