<?xml version="1.0" encoding="UTF-8" standalone="no"?>
<!DOCTYPE svg PUBLIC "-//W3C//DTD SVG 1.1//EN"
 "https://www.w3.org/Graphics/SVG/1.1/DTD/svg11.dtd"><!-- Generated by graphviz version 2.43.0 (0)
 -->
<!-- Title: /home/runner/work/doxygen/doxygen/src/anchor.h Pages: 1 -->
<svg width="162pt" height="93pt"
 viewBox="0.00 0.00 162.00 93.00" xmlns="http://www.w3.org/2000/svg" xmlns:xlink="http://www.w3.org/1999/xlink">

<svg id="main" version="1.1" xmlns="http://www.w3.org/2000/svg" xmlns:xlink="http://www.w3.org/1999/xlink" xml:space="preserve" onload="init(evt)">
<style type="text/css"><![CDATA[
.node, .edge {opacity: 0.7;}
.node.selected, .edge.selected {opacity: 1;}
.edge:hover path { stroke: red; }
.edge:hover polygon { stroke: red; fill: red; }
]]></style>
<script type="application/ecmascript" xlink:href="../../svg.min.js"/>
<svg id="graph" class="graph">
<g id="graph0" class="graph" transform="scale(1 1) rotate(0) translate(4 89)">
<title/>
<!-- Node1 -->
<g id="Node000001" class="node">
<title/>
<polygon fill="#999999" stroke="#666666" points="154,-85 0,-85 0,-55 154,-55 154,-85"/>
<text text-anchor="start" x="8" y="-73" font-family="Helvetica,sans-Serif" font-size="10.00">/home/runner/work/doxygen</text>
<text text-anchor="middle" x="77" y="-62" font-family="Helvetica,sans-Serif" font-size="10.00">/doxygen/src/anchor.h</text>
</g>
<!-- Node2 -->
<g id="Node000002" class="node">
<title/>
<polygon fill="#e0e0e0" stroke="#999999" points="72,-19 14,-19 14,0 72,0 72,-19"/>
<text text-anchor="middle" x="43" y="-7" font-family="Helvetica,sans-Serif" font-size="10.00">memory</text>
</g>
<!-- Node1&#45;&gt;Node2 -->
<g id="edge1_Node000001_Node000002" class="edge">
<title/>
<path fill="none" stroke="#63b8ff" d="M68.77,-54.84C64.09,-46.78 58.18,-36.62 53.2,-28.06"/>
<polygon fill="#63b8ff" stroke="#63b8ff" points="56.15,-26.15 48.09,-19.27 50.09,-29.67 56.15,-26.15"/>
</g>
<!-- Node3 -->
<g id="Node000003" class="node">
<title/>
<polygon fill="#e0e0e0" stroke="#999999" points="134,-19 90,-19 90,0 134,0 134,-19"/>
<text text-anchor="middle" x="112" y="-7" font-family="Helvetica,sans-Serif" font-size="10.00">string</text>
</g>
<!-- Node1&#45;&gt;Node3 -->
<g id="edge2_Node000001_Node000003" class="edge">
<title/>
<path fill="none" stroke="#63b8ff" d="M85.47,-54.84C90.29,-46.78 96.37,-36.62 101.5,-28.06"/>
<polygon fill="#63b8ff" stroke="#63b8ff" points="104.62,-29.64 106.76,-19.27 98.62,-26.05 104.62,-29.64"/>
</g>
</g>
</svg>
</svg>

<style type='text/css'>
<![CDATA[
[data-mouse-over-selected='false'] { opacity: 0.7; }
[data-mouse-over-selected='true']  { opacity: 1.0; }
]]>
</style>
<script type="application/ecmascript"><![CDATA[
document.addEventListener('DOMContentLoaded', (event) => {
  highlightEdges();
  highlightAdjacentNodes();
});
]]></script>
</svg>
